<svg width="102" height="22" viewBox="0 0 102 22" fill="none" xmlns="http://www.w3.org/2000/svg">
<path fill-rule="evenodd" clip-rule="evenodd" d="M102 8.8L101.55 10.6526H98.8477C98.8477 10.6526 97.2715 18.0632 97.2715 18.7579C97.0464 19.4526 97.4967 19.9158 97.947 19.9158C98.6225 19.9158 99.7483 18.7579 99.7483 18.5263L100.649 19.4526C99.5232 20.6105 98.1722 21.7684 96.1457 22C95.0199 22 93.2185 21.3053 93.6689 19.2211C94.1192 17.1368 95.245 10.6526 95.245 10.6526H93.6689L94.1192 9.03158C96.1457 8.33684 97.4967 7.87368 98.6225 4.63158H100.199L99.298 8.8H102ZM87.5894 22C86.0132 22 85.5629 20.8421 85.5629 19.9158C85.5629 18.5263 87.1391 12.9684 87.1391 12.0421C87.1391 11.1158 86.4636 10.8842 85.5629 10.8842L85.7881 9.26316C87.1391 9.26316 88.7152 9.49473 91.4172 8.8C91.4172 8.8 89.6159 17.1368 89.6159 18.0632C89.6159 18.2947 89.6159 18.7579 90.0662 18.9895C90.7417 19.2211 91.4172 18.7579 91.4172 18.7579L91.8675 20.1474C91.6424 20.1474 89.841 22 87.5894 22ZM87.3642 5.32631C87.1391 4.4 87.8146 3.47368 88.9404 3.2421C90.0662 3.01053 91.192 3.47368 91.4172 4.4C91.6424 5.32631 90.7417 6.25263 89.6159 6.48421C88.7152 6.94737 87.5894 6.25263 87.3642 5.32631ZM80.3841 7.6421C78.5828 8.8 75.8808 10.6526 75.8808 10.6526C75.8808 10.6526 79.7086 17.6 80.3841 18.7579C81.0596 19.9158 81.9603 20.3789 82.6358 20.3789L82.4106 21.7684H72.5033L72.7285 20.3789C73.6291 20.3789 74.9801 20.3789 74.9801 19.6842C75.2053 18.7579 74.9801 18.2947 74.755 17.8316C74.5298 17.3684 72.053 12.7368 72.053 12.7368L68.9007 15.0526C68.9007 15.0526 68.2252 17.8316 68.2252 18.0632C68.2252 18.5263 68 19.2211 68.2252 19.6842C68.4503 19.9158 68.6755 20.3789 69.8013 20.3789L69.5761 21.7684H60.3444L60.5695 20.3789C62.1457 20.3789 63.0464 20.1474 63.4967 18.2947L65.7483 7.41052C65.7483 7.17894 65.7483 6.94737 65.7483 6.71579C65.5232 6.02105 64.3974 5.55789 63.4967 5.55789L63.7219 4.16842H73.6291L73.404 5.55789C71.3775 5.78947 70.702 6.48421 70.4768 7.41052C70.2517 8.33684 69.351 12.9684 69.351 12.9684L75.2053 8.56842C75.2053 8.56842 76.5563 7.64211 76.7814 7.17895C77.0066 6.94737 77.457 5.78947 75.4305 5.78947L76.106 4.4H85.3377L85.1126 6.02105C83.0861 6.25263 81.9603 6.48421 80.3841 7.6421ZM58.7682 12.9684C58.3179 11.3474 56.7417 10.1895 55.8411 9.95789C54.4901 9.95789 53.8146 10.6526 53.8146 11.3474C53.8146 12.2737 54.4901 12.9684 55.8411 13.6632C57.6424 14.5895 59.2185 15.5158 58.7682 18.0632C58.3179 20.6105 55.8411 21.7684 53.3642 21.7684C51.7881 21.7684 50.2119 20.6105 49.5364 20.8421C49.0861 20.8421 48.4106 21.3053 48.1854 21.7684H47.7351L48.6358 17.1368H49.0861C49.3113 19.2211 52.2384 20.1474 52.9139 20.1474C53.8146 20.1474 55.1656 19.9158 55.3907 18.7579C55.6159 17.6 54.9404 17.1368 53.3642 16.4421C51.5629 15.5158 50.2119 14.8211 50.2119 12.5053C50.2119 9.95789 52.6887 8.56842 55.3907 8.8C57.192 8.8 57.4172 9.26316 58.543 9.49474C59.2185 9.49474 59.4437 9.49474 59.894 9.03158H60.3444L59.4437 13.2L58.7682 12.9684ZM49.5364 7.87368H48.8609L49.0861 2.08421C49.0861 0.926315 49.9868 0.23158 50.8874 0.23158C51.5629 0.23158 52.0132 0.694738 52.0132 1.38947C52.0132 1.85263 51.7881 2.31579 51.5629 2.77894L49.5364 7.87368ZM40.755 22C38.7285 22 36.9272 20.3789 36.4768 17.3684C35.8013 12.9684 38.7285 8.8 42.3311 8.8C43.0066 8.8 45.4834 9.26316 46.3841 12.7368C47.5099 16.4421 45.0331 22 40.755 22ZM42.5563 11.3474C40.9801 10.8842 40.5298 12.7368 40.0795 15.2842C39.6291 17.6 38.9536 19.4526 40.755 19.9158C42.3311 20.1474 42.5563 18.5263 43.2318 15.9789C43.6821 12.9684 43.9073 11.5789 42.5563 11.3474ZM35.1258 13.4316C35.1258 13.4316 34.9007 13.2 34.2252 12.9684C33.5497 12.7368 32.8742 12.7368 32.4238 12.7368C31.5232 12.9684 30.1722 13.6632 29.2715 17.6C28.596 20.1474 28.3709 21.7684 28.3709 21.7684H24.7682C25.894 16.9053 26.7947 13.2 26.7947 12.2737C26.7947 11.5789 26.5695 11.3474 25.6689 11.3474L26.1192 9.72631C27.0199 9.72631 29.7219 9.49474 31.0728 9.03158L30.6225 11.3474C31.7483 9.95789 33.5497 9.03158 34.2252 8.8C35.1258 8.56842 35.8013 8.56842 36.4768 8.8C36.4768 8.8 36.0265 9.95789 35.8013 11.1158C35.5762 11.8105 35.1258 13.4316 35.1258 13.4316ZM18.6887 13.2C15.7616 13.4316 10.3576 13.2 10.3576 13.2L9.23179 17.6C9.00662 18.9895 9.68212 19.9158 12.6093 20.1474L12.3841 22H0L0.450332 20.3789C1.57616 20.3789 4.05298 19.6842 4.50331 17.8316C5.17881 14.5895 6.98013 5.32631 6.98013 5.32631C6.98013 5.09474 7.2053 4.16842 6.98013 3.70526C6.75497 3.01053 6.30464 2.54737 4.05298 2.31579L4.50331 0H20.4901C23.8675 0 26.1192 2.31579 25.894 6.02105C25.6689 10.6526 21.6159 12.9684 18.6887 13.2ZM15.9868 3.01052H12.6093L11.2583 9.72631C11.7086 9.72631 13.9603 9.72631 14.4106 9.72631C16.6623 9.72631 16.8874 9.72632 17.7881 9.26316C18.9139 8.56842 19.5894 6.94737 19.5894 5.55789C19.5894 5.09474 18.9139 3.2421 15.9868 3.01052Z" fill="#E2E2E2"/>
</svg>
