<svg width="172" height="33" viewBox="0 0 172 33" fill="none" xmlns="http://www.w3.org/2000/svg">
<path d="M171.513 32.5076C171.362 32.5213 171.253 32.5487 171.143 32.5487C167.75 32.5487 164.344 32.5624 160.951 32.5213C160.65 32.5213 160.28 32.2066 160.089 31.933C156.258 26.5151 152.454 21.0835 148.651 15.652C148.5 15.4331 148.336 15.2278 148.049 15.0637C148.049 20.8646 148.049 26.6519 148.049 32.494C147.803 32.5213 147.625 32.5487 147.461 32.5487C144.314 32.5487 141.167 32.535 138.02 32.5624C137.473 32.5624 137.323 32.3982 137.323 31.8646C137.336 21.494 137.336 11.1097 137.323 0.739082C137.323 0.164457 137.487 0.000278607 138.061 0.0139602C141.304 0.0413233 144.533 0.0413233 147.775 0.0139602C148.24 0.0139602 148.514 0.178139 148.774 0.54754C152.577 6.00648 156.408 11.4517 160.225 16.897C160.376 17.1159 160.54 17.3211 160.704 17.5263C160.759 17.5127 160.827 17.499 160.882 17.4716C160.882 11.6843 160.882 5.88334 160.882 0.0550047C164.494 0.0550047 167.997 0.0550047 171.54 0.0550047C171.513 10.8771 171.513 21.6445 171.513 32.5076Z" fill="#E2E2E2"/>
<path d="M133.902 24.8046C133.902 27.4041 133.902 29.9215 133.902 32.4936C124.188 32.4936 114.474 32.4936 104.706 32.4936C104.706 21.7126 104.706 10.9178 104.706 0.0683594C114.406 0.0683594 124.106 0.0683594 133.875 0.0683594C133.875 2.58576 133.875 5.13053 133.875 7.75739C133.601 7.75739 133.341 7.75739 133.081 7.75739C127.431 7.75739 121.766 7.77107 116.116 7.74371C115.5 7.74371 115.281 7.88052 115.309 8.53724C115.363 9.78226 115.322 11.041 115.322 12.3544C115.719 12.3818 116.048 12.4091 116.39 12.4091C121.411 12.4091 126.418 12.4228 131.439 12.3954C132.096 12.3954 132.356 12.5323 132.329 13.2574C132.274 15.2822 132.288 17.3208 132.329 19.3457C132.342 19.9613 132.164 20.1666 131.535 20.1529C126.5 20.1255 121.452 20.1392 116.417 20.1392C116.075 20.1392 115.747 20.1666 115.336 20.1939C115.336 21.6578 115.322 23.067 115.35 24.4762C115.35 24.5857 115.555 24.7362 115.692 24.7772C115.856 24.832 116.048 24.7909 116.239 24.7909C121.821 24.7909 127.417 24.7909 132.999 24.7909C133.259 24.8046 133.533 24.8046 133.902 24.8046Z" fill="#E2E2E2"/>
<path d="M10.5767 24.8049C13.4088 24.8049 16.0767 24.8049 18.8403 24.8049C18.4983 25.6669 18.1973 26.4467 17.8826 27.2129C17.2396 28.8136 16.5829 30.4281 15.9399 32.0288C15.8167 32.3435 15.6799 32.5487 15.2695 32.5487C10.3031 32.535 5.32298 32.535 0.356576 32.535C0.274487 32.535 0.178716 32.5076 0.0145377 32.4803C0.0145377 32.234 0.0145377 31.9877 0.0145377 31.7415C0.0145377 29.7303 0.0419007 27.7328 0.000856089 25.7216C-0.0128255 24.9007 0.137672 24.1619 0.438666 23.4094C3.51701 15.8162 6.59536 8.2229 9.66003 0.615955C9.83789 0.164464 10.0568 0.000285245 10.5493 0.0139668C14.9274 0.0276483 19.3055 0.0276483 23.6836 0.0139668C24.1351 0.0139668 24.354 0.123419 24.5319 0.561229C28.7458 11.0139 32.9871 21.4666 37.2147 31.9193C37.2831 32.0972 37.3378 32.3024 37.4199 32.5487C34.9435 32.5487 32.5219 32.5487 30.1139 32.5487C29.2246 32.5487 28.3353 32.5076 27.446 32.5624C26.9125 32.5897 26.7072 32.3845 26.5157 31.9193C23.752 25.0512 20.9747 18.1831 18.1973 11.3286C17.869 10.5214 17.5269 9.71418 17.0207 8.89329C14.8864 14.147 12.7657 19.4144 10.5767 24.8049Z" fill="#E2E2E2"/>
<path d="M32.7407 7.75744C32.7407 5.14426 32.7407 2.61318 32.7407 0.0136816C33.0144 0.0136816 33.2606 0.0136816 33.5069 0.0136816C43.8091 0.0136816 54.125 0.0273631 64.4272 0C65.125 0 65.3165 0.17786 65.3028 0.875619C65.2618 2.90049 65.2754 4.93904 65.3028 6.96391C65.3165 7.5659 65.166 7.7848 64.5093 7.7848C61.4583 7.74376 58.3936 7.77112 55.3426 7.77112C54.3302 7.77112 54.3302 7.77112 54.3302 8.75619C54.3302 16.3494 54.3302 23.9427 54.3302 31.536C54.3302 31.8506 54.3302 32.1653 54.3302 32.5074C50.732 32.5074 47.2295 32.5074 43.6449 32.5074C43.6449 32.1927 43.6449 31.9054 43.6449 31.6044C43.6449 23.9701 43.6449 16.3221 43.6449 8.68778C43.6449 7.75744 43.6449 7.75744 42.7146 7.75744C39.6636 7.75744 36.5989 7.75744 33.5479 7.75744C33.3153 7.75744 33.0554 7.75744 32.7407 7.75744Z" fill="#E2E2E2"/>
<path d="M68.7095 7.7574C68.7095 5.13054 68.7095 2.61314 68.7095 0.0546875C79.5453 0.0546875 90.34 0.0546875 101.189 0.0546875C101.189 2.59946 101.189 5.13054 101.189 7.7574C100.916 7.7574 100.656 7.7574 100.396 7.7574C97.345 7.7574 94.2803 7.7574 91.2293 7.7574C90.2853 7.7574 90.2853 7.7574 90.2853 8.67406C90.2853 16.3084 90.2853 23.9564 90.2853 31.5907C90.2853 31.878 90.2853 32.1653 90.2853 32.5073C86.7007 32.5073 83.2119 32.5073 79.6137 32.5073C79.6137 32.1926 79.6137 31.8917 79.6137 31.6043C79.6137 23.97 79.6137 16.322 79.6137 8.68774C79.6137 7.7574 79.6137 7.7574 78.6833 7.7574C75.6323 7.7574 72.5677 7.7574 69.5167 7.7574C69.2841 7.7574 69.0378 7.7574 68.7095 7.7574Z" fill="#E2E2E2"/>
</svg>
