<svg width="150" height="31" viewBox="0 0 150 31" fill="none" xmlns="http://www.w3.org/2000/svg">
<path d="M65.4928 21.3412L50.3625 0H39.5082V30.206H50.3625V18.0579L59.9011 30.206H76.3471V0H65.4928V21.3412Z" fill="#E2E2E2"/>
<path d="M89.8331 0H79.3077V30.206H89.8331V0Z" fill="#E2E2E2"/>
<path d="M26.0228 21.3413H10.8926V0.328369H0.367188C0.367188 0.328369 0.367188 23.3112 0.367188 26.5945C0.367188 29.8777 4.31421 30.5344 4.31421 30.5344C4.31421 30.5344 29.312 30.5344 32.6012 30.5344C35.8904 30.5344 36.8772 26.2662 36.8772 26.2662V0.328369H26.3518V21.3413H26.0228Z" fill="#E2E2E2"/>
<path d="M145.42 22.6543C143.446 22.6543 141.473 24.2959 141.473 26.2659C141.473 28.2358 143.117 29.8775 145.42 29.8775C147.393 29.8775 149.367 28.2358 149.367 26.2659C149.367 24.2959 147.393 22.6543 145.42 22.6543ZM145.42 29.2208C143.775 29.2208 142.46 27.9075 142.46 26.2659C142.46 24.6243 143.775 23.311 145.42 23.311C147.064 23.311 148.38 24.6243 148.38 26.2659C148.38 27.9075 147.064 29.2208 145.42 29.2208Z" fill="#E2E2E2"/>
<path d="M112.529 10.5061H92.7936V19.6992H112.529V10.5061Z" fill="#E2E2E2"/>
<path d="M149.367 0H137.197H126.343H112.857V9.19314H126.343V30.206H137.197V9.19314H149.367V0Z" fill="#E2E2E2"/>
<path d="M146.078 26.5942C146.407 26.5942 146.736 25.9376 146.736 25.6092C146.736 25.2809 146.736 24.9526 146.407 24.9526C146.078 24.6243 145.749 24.6243 145.091 24.6243C144.762 24.6243 144.433 24.6243 144.104 24.6243V28.5642H144.762V26.9225H145.091C145.42 26.9225 145.749 27.2509 145.749 27.5792C145.749 27.9075 146.078 28.5642 146.078 28.5642H146.736C146.736 28.5642 146.407 27.9075 146.407 27.5792C146.407 26.9226 146.407 26.5942 146.078 26.5942ZM145.42 26.2659H144.762V24.9526C144.762 24.9526 145.091 24.9526 145.42 24.9526C146.078 24.9526 146.407 25.2809 146.407 25.6092C146.078 25.9376 145.749 26.2659 145.42 26.2659Z" fill="#E2E2E2"/>
</svg>
