<svg width="137" height="34" viewBox="0 0 137 34" fill="none" xmlns="http://www.w3.org/2000/svg">
<path fill-rule="evenodd" clip-rule="evenodd" d="M127.372 32.1055L126.173 29.105H116.278L118.977 22.8039H123.774L123.474 21.9037L118.977 10.8018L115.079 21.9037L112.98 26.7045L110.881 32.1055H101.586L114.779 0.300052H123.174L136.367 32.1055H127.372ZM98.8873 7.80133V32.1055H90.1919V7.80133H79.6976L82.696 0.900154L82.9958 0H110.881L107.882 7.80133H98.8873ZM78.1984 21.0036L84.7948 25.8044C82.696 28.8049 79.6976 31.5054 75.4998 32.4055C75.7997 32.4055 76.0995 32.1055 76.3994 32.1055C76.0995 32.1055 75.7997 32.4055 75.4998 32.4055C74.9002 32.4055 74.6003 32.7056 74.0006 32.7056C73.1011 32.7056 72.2016 33.0056 71.0023 33.0056C66.8045 33.0056 63.2064 31.5054 60.208 28.8049C57.5095 31.5054 53.9114 33.0056 48.8141 33.0056C40.1188 33.0056 32.9227 26.1044 32.9227 16.5028C32.9227 7.20122 39.819 0 49.4138 0C51.8125 0 53.9114 0.300053 56.0103 1.20021L52.4122 8.40143C51.5127 8.10138 50.3133 7.80133 49.4138 7.80133C44.9162 7.80133 41.9178 11.702 41.9178 16.5028C41.9178 21.3036 44.9162 24.9042 49.4138 24.9042C49.7137 24.9042 49.7137 24.9042 49.7137 24.9042H50.0135C52.4122 24.6042 53.9114 23.404 55.7105 21.6037C55.1108 20.1034 55.1108 18.3031 55.1108 16.5028C55.1108 7.20122 62.0071 0 71.6019 0C73.7008 0 76.3993 0.900154 78.1984 1.80031L74.6003 9.00153C73.7008 8.70148 72.2016 8.10138 71.3021 8.10138C66.8045 8.10138 63.8061 12.002 63.8061 16.5028C63.8061 21.3036 66.8045 24.9042 71.3021 24.9042C71.9018 24.9042 72.5014 24.9042 73.1011 24.6042C72.8013 24.6042 72.5014 24.6042 72.2016 24.6042C74.9002 24.6042 76.6992 23.1039 78.1984 21.0036ZM75.4998 32.4055C74.9002 32.4055 74.6003 32.7056 74.0006 32.7056C74.6003 32.7056 74.9002 32.4055 75.4998 32.4055ZM26.0264 32.1055L24.827 29.105H14.9323L17.6309 22.8039H22.4283L22.1285 21.9037L17.9307 10.8018L14.0328 21.9037L11.9339 26.7045L9.53521 32.4055H0.540039L13.733 0.600104H22.1285L35.3214 32.4055H26.0264V32.1055Z" fill="#E2E2E2"/>
</svg>
