<svg width="225" height="45" viewBox="0 0 225 45" fill="none" xmlns="http://www.w3.org/2000/svg">
<g clip-path="url(#clip0_107_38)">
<path d="M203.536 27.8H204.393V34.16H203.536V27.8Z" fill="white"/>
<path d="M61.6809 32.2536L58.6742 29.0833V34.1494H57.8163V27.8004H58.6767L61.6809 30.9698L64.685 27.8004H65.5454V34.1494H64.6866V29.0833L61.6809 32.2536Z" fill="white"/>
<path fill-rule="evenodd" clip-rule="evenodd" d="M74.1082 29.6137V34.1494H73.3457V32.3346H68V34.1494H67.2363V29.6137C67.2363 29.1117 67.3849 28.6868 67.6819 28.3302C67.981 27.9793 68.3389 27.8004 68.7632 27.8004H72.5811C73.0031 27.8004 73.3627 27.9793 73.6619 28.3302C73.9589 28.6868 74.1082 29.1117 74.1082 29.6137ZM72.5811 28.7092H68.7632C68.5553 28.7092 68.3741 28.7973 68.2249 28.9766C68.0756 29.1548 68 29.3686 68 29.6137V31.429H73.3457V29.6137C73.3457 29.3686 73.2682 29.1548 73.1204 28.9766C72.969 28.7973 72.7896 28.7092 72.5811 28.7092Z" fill="white"/>
<path d="M76.5729 28.7092V34.1494H75.8205V27.8004H81.8149V28.7092H76.5729Z" fill="white"/>
<path fill-rule="evenodd" clip-rule="evenodd" d="M89.5433 34.1494V29.6137C89.5433 29.1117 89.3952 28.6868 89.0964 28.3302C88.7987 27.9793 88.4377 27.8004 88.0144 27.8004H84.1982C83.7762 27.8004 83.4157 27.9793 83.117 28.3302C82.8195 28.6868 82.6708 29.1117 82.6708 29.6137V34.1494H83.4345V32.3346H88.7781V34.1494H89.5433ZM84.1982 28.7092H88.0144C88.225 28.7092 88.4033 28.7973 88.5541 28.9766C88.7065 29.1548 88.7781 29.3686 88.7781 29.6137V31.429H83.4345V29.6137C83.4345 29.3686 83.5098 29.1548 83.6588 28.9766C83.8089 28.7973 83.9911 28.7092 84.1982 28.7092Z" fill="white"/>
<path d="M96.5751 30.5246H94.9237V31.429H96.5751C96.783 31.429 96.9635 31.5198 97.1105 31.6991C97.2608 31.8742 97.336 32.088 97.336 32.3346C97.336 32.5823 97.2608 32.7944 97.1105 32.9765C96.9635 33.1554 96.783 33.2434 96.5751 33.2434H92.7726C92.5646 33.2434 92.383 33.1554 92.2359 32.9765C92.0844 32.7944 92.012 32.5823 92.012 32.3346H91.2506C91.2506 32.8371 91.4003 33.2664 91.6966 33.619C91.9933 33.9733 92.3512 34.1494 92.7726 34.1494H96.5751C96.9952 34.1494 97.3541 33.9733 97.6519 33.619C97.9479 33.2664 98.0971 32.8371 98.0971 32.3346C98.0971 31.7917 97.9237 31.3383 97.5795 30.9741C97.9237 30.6143 98.0971 30.161 98.0971 29.6137C98.0971 29.1117 97.9479 28.6868 97.6519 28.3302C97.3541 27.9793 96.9952 27.8004 96.5751 27.8004H92.7726C92.3512 27.8004 91.9933 27.9793 91.6966 28.3302C91.4003 28.6868 91.2506 29.1117 91.2506 29.6137H92.012C92.012 29.3692 92.0844 29.1548 92.2359 28.9766C92.383 28.7973 92.5646 28.7092 92.7726 28.7092H96.5751C96.783 28.7092 96.9635 28.7973 97.1105 28.9766C97.2608 29.1548 97.336 29.3692 97.336 29.6137C97.336 29.8614 97.2608 30.0757 97.1105 30.2539C96.9635 30.4333 96.783 30.5246 96.5751 30.5246Z" fill="white"/>
<path d="M99.8204 27.8004H100.583V32.6074L105.907 28.1657V27.8004H106.669V34.1494H105.907V29.2719L100.583 33.7159V34.1494H99.8204V27.8004Z" fill="white"/>
<path d="M114.488 30.5246H109.145V27.8004H108.383V34.1494H109.145V31.429H114.488V34.1494H115.252V27.8004H114.488V30.5246Z" fill="white"/>
<path d="M128.018 30.5246H133.341V27.8004H134.102V34.1494H133.341V31.429H128.018V34.1494H127.255V27.8004H128.018V30.5246Z" fill="white"/>
<path d="M141.329 27.8004H137.467C137.041 27.8004 136.677 27.9793 136.373 28.3302C136.073 28.6868 135.922 29.1117 135.922 29.6137V32.3346C135.922 32.8371 136.073 33.2664 136.373 33.619C136.677 33.9733 137.041 34.1494 137.467 34.1494H141.329C141.756 34.1494 142.121 33.9733 142.422 33.619C142.724 33.2664 142.875 32.8371 142.875 32.3346H142.099C142.099 32.5823 142.027 32.7944 141.873 32.9765C141.723 33.1548 141.541 33.2434 141.329 33.2434H137.467C137.256 33.2434 137.072 33.1548 136.923 32.9765C136.77 32.7944 136.695 32.5823 136.695 32.3346V29.6137C136.695 29.3686 136.77 29.1548 136.923 28.9766C137.072 28.7973 137.256 28.7092 137.467 28.7092H141.329C141.541 28.7092 141.723 28.7973 141.873 28.9766C142.027 29.1548 142.099 29.3686 142.099 29.6137H142.875C142.875 29.1117 142.724 28.6868 142.422 28.3302C142.121 27.9793 141.756 27.8004 141.329 27.8004Z" fill="white"/>
<path d="M147.33 28.7092V34.1494H146.559V28.7092H143.467V27.8004H150.421V28.7092H147.33Z" fill="white"/>
<path fill-rule="evenodd" clip-rule="evenodd" d="M158.231 30.5246V29.6137C158.231 29.1117 158.082 28.6868 157.78 28.3302C157.478 27.9793 157.113 27.8004 156.683 27.8004H151.278V34.1494H152.052V32.3346H156.683C157.113 32.3346 157.478 32.1595 157.78 31.8052C158.082 31.4514 158.231 31.0227 158.231 30.5246ZM157.46 29.6137V30.5246C157.46 30.774 157.382 30.9834 157.231 31.1627C157.079 31.3421 156.897 31.429 156.683 31.429H152.052V28.7092H156.683C156.897 28.7092 157.079 28.7973 157.231 28.9766C157.382 29.1548 157.46 29.3692 157.46 29.6137Z" fill="white"/>
<path d="M165.157 33.2434H161.354C161.148 33.2434 160.967 33.1554 160.816 32.9765C160.668 32.7944 160.594 32.5823 160.594 32.3346H159.834C159.834 32.8371 159.979 33.2664 160.277 33.619C160.576 33.9733 160.933 34.1494 161.354 34.1494H165.157C165.578 34.1494 165.936 33.9733 166.234 33.619C166.531 33.2664 166.677 32.8371 166.677 32.3346V27.8004H165.916V30.5246H161.354C161.148 30.5246 160.967 30.4333 160.816 30.2539C160.668 30.0757 160.594 29.8614 160.594 29.6137V27.8004H159.834V29.6137C159.834 30.115 159.979 30.5454 160.277 30.8965C160.576 31.253 160.933 31.429 161.354 31.429H165.916V32.3346C165.916 32.5823 165.843 32.7944 165.695 32.9765C165.543 33.1554 165.365 33.2434 165.157 33.2434Z" fill="white"/>
<path d="M172.255 32.2536L169.246 29.0833V34.1494H168.388V27.8004H169.25L172.255 30.9698L175.255 27.8004H176.118V34.1494H175.261V29.0833L172.255 32.2536Z" fill="white"/>
<path d="M183.911 30.5246H178.585V28.7092H184.671V27.8004H177.824V34.1494H184.671V33.2434H178.585V31.429H183.911V30.5246Z" fill="white"/>
<path d="M187.145 30.5246H192.49V27.8004H193.254V34.1494H192.49V31.429H187.145V34.1494H186.38V27.8004H187.145V30.5246Z" fill="white"/>
<path d="M198.775 34.1494V28.7092H201.819V27.8004H194.974V28.7092H198.016V34.1494H198.775Z" fill="white"/>
<path fill-rule="evenodd" clip-rule="evenodd" d="M212.271 34.1494H206.865V27.8004H212.271C212.698 27.8004 213.065 27.9793 213.366 28.3302C213.667 28.6868 213.816 29.1117 213.816 29.6137C213.816 30.161 213.643 30.6143 213.291 30.9736C213.643 31.3383 213.816 31.7917 213.816 32.3346C213.816 32.8371 213.667 33.2664 213.366 33.619C213.065 33.9733 212.698 34.1494 212.271 34.1494ZM207.638 30.5246H212.271C212.484 30.5246 212.667 30.4333 212.819 30.2539C212.968 30.0757 213.046 29.8614 213.046 29.6137C213.046 29.3686 212.968 29.1548 212.819 28.9766C212.667 28.7973 212.484 28.7092 212.271 28.7092H207.638V30.5246ZM212.271 31.429H207.638V33.2434H212.271C212.484 33.2434 212.667 33.1554 212.819 32.9765C212.968 32.7944 213.046 32.5823 213.046 32.3346C213.046 32.088 212.968 31.8742 212.819 31.6991C212.667 31.5198 212.484 31.429 212.271 31.429Z" fill="white"/>
<path d="M125.534 27.8H124.677V34.16H125.534V27.8Z" fill="white"/>
<path d="M66.8145 21.2502L59.8162 13.8308V25.6781H57.8163V10.8401H59.8221L66.8145 18.2506L73.8034 10.8401H75.8113V25.6781H73.8127V13.8308L66.8145 21.2502Z" fill="white"/>
<path fill-rule="evenodd" clip-rule="evenodd" d="M96.3896 15.0806V25.6781H94.3889V21.44H80.3922V25.6781H78.3911V15.0806C78.3911 13.9072 78.7814 12.9075 79.5616 12.0825C80.3435 11.2539 81.2835 10.8401 82.3912 10.8401H92.3908C93.4953 10.8401 94.4388 11.2539 95.2176 12.0825C95.9967 12.9075 96.3896 13.9072 96.3896 15.0806ZM92.3908 12.9615H82.3912C81.8443 12.9615 81.3769 13.1693 80.9818 13.5866C80.5872 14.0033 80.3922 14.5017 80.3922 15.0806V19.3197H94.3889V15.0806C94.3889 14.5017 94.1889 14.0033 93.7982 13.5866C93.4058 13.1693 92.936 12.9615 92.3908 12.9615Z" fill="white"/>
<path d="M116.113 21.44C116.113 22.6124 115.72 23.6102 114.942 24.4372C114.161 25.2643 113.217 25.6781 112.113 25.6781H102.115C101.008 25.6781 100.066 25.2643 99.2869 24.4372C98.508 23.6102 98.1159 22.6124 98.1159 21.44H100.115C100.115 22.0195 100.314 22.5137 100.704 22.9346C101.1 23.3508 101.566 23.5603 102.115 23.5603H112.113C112.658 23.5603 113.129 23.3508 113.523 22.9346C113.915 22.5137 114.113 22.0195 114.113 21.44C114.113 20.8581 113.915 20.3602 113.523 19.9455C113.129 19.5297 112.658 19.3197 112.113 19.3197H102.115C101.008 19.3197 100.066 18.9069 99.2869 18.0814C98.508 17.2533 98.1159 16.2541 98.1159 15.0806C98.1159 13.9072 98.508 12.907 99.2869 12.0825C100.066 11.2539 101.008 10.8401 102.115 10.8401H111.677C112.779 10.8401 113.724 11.2539 114.504 12.0825C115.283 12.907 115.676 13.9072 115.676 15.0806H113.674C113.674 14.5017 113.476 14.0029 113.084 13.5866C112.69 13.1693 112.22 12.9615 111.677 12.9615H102.115C101.566 12.9615 101.1 13.1693 100.704 13.5866C100.314 14.0029 100.115 14.5017 100.115 15.0806C100.115 15.6611 100.314 16.1574 100.704 16.5738C101.1 16.9935 101.566 17.2 102.115 17.2H112.113C113.217 17.2 114.161 17.6132 114.942 18.4398C115.72 19.2679 116.113 20.2666 116.113 21.44Z" fill="white"/>
<path d="M126.537 25.6781V12.9615H134.105V10.8401H116.971V12.9615H124.536V25.6781H126.537Z" fill="white"/>
<path d="M137.825 17.2H151.821V19.3197H137.825V23.5603H153.821V25.6781H135.826V10.8401H153.821V12.9615H137.825V17.2Z" fill="white"/>
<path fill-rule="evenodd" clip-rule="evenodd" d="M167.76 21.44L171.646 25.6781H173.012L174.401 25.6801L170.311 21.2271C171.113 20.9582 171.765 20.4489 172.262 19.7014C172.763 18.9533 173.012 18.1182 173.012 17.2V15.0806C173.012 13.9072 172.633 12.907 171.874 12.0825C171.118 11.2539 170.202 10.8401 169.128 10.8401H155.535V25.6781H157.476V21.44H167.76ZM171.069 15.0806V17.2C171.069 17.7773 170.876 18.2773 170.497 18.694C170.114 19.1103 169.66 19.3197 169.128 19.3197H157.476V12.9615H169.128C169.66 12.9615 170.114 13.1693 170.497 13.5866C170.876 14.0029 171.069 14.5017 171.069 15.0806Z" fill="white"/>
<path fill-rule="evenodd" clip-rule="evenodd" d="M193.24 25.6781V15.0806C193.24 13.9072 192.848 12.9075 192.066 12.0825C191.288 11.2539 190.344 10.8401 189.238 10.8401H179.24C178.132 10.8401 177.191 11.2539 176.41 12.0825C175.63 12.9075 175.241 13.9072 175.241 15.0806V25.6781H177.24V21.44H191.237V25.6781H193.24ZM179.24 12.9615H189.238C189.785 12.9615 190.254 13.1693 190.646 13.5866C191.04 14.0033 191.237 14.5017 191.237 15.0806V19.3197H177.24V15.0806C177.24 14.5017 177.436 14.0033 177.83 13.5866C178.224 13.1693 178.693 12.9615 179.24 12.9615Z" fill="white"/>
<path d="M197.823 13.8308L204.82 21.2502L211.818 13.8308V25.6781H213.816V10.8401H211.808L204.82 18.2506L197.829 10.8401H195.82V25.6781H197.823V13.8308Z" fill="white"/>
<path fill-rule="evenodd" clip-rule="evenodd" d="M50.8822 23.8653C51.0642 23.6827 51.2128 23.4739 51.3001 23.2447C51.3952 23.0156 51.449 22.7669 51.449 22.5035C51.449 22.3688 51.4284 22.2332 51.408 22.1125C51.3882 21.9909 51.3546 21.8693 51.3001 21.7617C51.2597 21.641 51.1924 21.5326 51.1247 21.4318C51.0572 21.3237 50.9763 21.2229 50.8822 21.1276L32.6531 2.93326C32.5589 2.8318 32.4578 2.75088 32.3564 2.67674C32.2485 2.60928 32.134 2.54904 32.0258 2.50146C31.9111 2.46103 31.7966 2.42055 31.6687 2.3939L31.2836 2.36011C30.7368 2.36011 30.2847 2.54904 29.907 2.92624L11.6851 21.1276C11.5902 21.2229 11.5102 21.3237 11.4353 21.425C11.3613 21.5326 11.3071 21.641 11.2599 21.7617C11.213 21.8693 11.1789 21.9909 11.152 22.1125C11.1249 22.2404 11.1181 22.3688 11.1249 22.5035C11.1181 22.6313 11.1249 22.7597 11.152 22.8805C11.1789 23.0092 11.213 23.1303 11.2599 23.2447C11.3071 23.3532 11.3613 23.4667 11.4353 23.5751C11.5102 23.6764 11.5902 23.7772 11.6851 23.8653L29.907 42.0738C30.0957 42.2556 30.3116 42.397 30.5347 42.4987C30.7634 42.5931 31.0134 42.6401 31.2836 42.6401L31.6749 42.6062C31.7966 42.5858 31.9177 42.5525 32.0323 42.4987C32.141 42.4581 32.2555 42.391 32.3564 42.3233C32.4578 42.2555 32.5589 42.1682 32.6603 42.0738L50.8822 23.8653Z" fill="url(#paint0_linear_107_38)"/>
<path fill-rule="evenodd" clip-rule="evenodd" d="M29.6479 17.5595L28.138 15.4632L27.5611 14.185C27.5611 13.9988 27.5342 13.8319 27.48 13.6922C27.4329 13.5458 27.3597 13.4262 27.2591 13.3259C27.2165 13.2789 27.1698 13.2439 27.1224 13.2084C27.1098 13.199 27.0972 13.1895 27.0846 13.1798C27.0237 13.1326 26.9566 13.1 26.8762 13.0665L26.8477 13.057C26.7779 13.0335 26.7107 13.011 26.6276 12.9937L26.3523 12.9602H26.326L26.3058 12.9737L26.2789 12.9937L26.2592 13.0264L26.2185 13.1535C26.1711 13.1937 26.1311 13.2396 26.0909 13.2999L25.9906 13.4723L26.0572 13.4592L26.1246 13.4663L26.185 13.4924L26.2522 13.5324L26.1583 13.5994L26.0909 13.6721L26.037 13.7587L26.0036 13.852L26.1246 13.8123L26.225 13.7984L26.326 13.8123L26.3298 13.8138C26.3618 13.8266 26.394 13.8396 26.4199 13.8654C26.3395 13.9252 26.2724 13.9988 26.2117 14.0778C26.1583 14.1582 26.1111 14.2385 26.0844 14.3313C26.1583 14.2786 26.2454 14.2385 26.3395 14.205L26.6276 14.1582L26.5609 14.2581C26.5507 14.2748 26.5422 14.2933 26.5336 14.3119C26.5252 14.33 26.5168 14.3483 26.5068 14.3648L26.4738 14.4778L26.4601 14.5977L26.7556 14.3113L26.8288 14.3648L26.8762 14.4046L26.8897 14.4446L26.8762 14.4778C26.8517 14.4957 26.8328 14.5302 26.8052 14.5806L26.7958 14.5977C26.7624 14.6576 26.7287 14.7379 26.6948 14.8374L26.7958 14.8106L26.8964 14.8039L27.1111 14.8304C27.0997 14.8369 27.0886 14.8431 27.078 14.849C27.0448 14.8674 27.0156 14.8837 26.99 14.9043L26.8762 14.9905L26.6745 15.1896C26.6825 15.1866 26.6908 15.1831 26.6994 15.1796C26.7274 15.1681 26.7583 15.1554 26.7889 15.1503L27.0509 15.1106H27.1985C27.0974 15.157 27.017 15.2097 26.9436 15.2699C26.8695 15.3301 26.8088 15.3962 26.7556 15.4761C26.8288 15.4493 26.9099 15.4297 26.997 15.423L27.2654 15.4431C27.1715 15.4832 27.0911 15.5359 27.0103 15.6029C26.9436 15.6627 26.8762 15.7425 26.8225 15.8287C26.9032 15.7957 26.99 15.776 27.0776 15.7693L27.3527 15.776L27.1448 15.9952C27.0846 16.0754 27.0307 16.155 26.9771 16.2419C27.044 16.2152 27.1111 16.1951 27.2052 16.1884L27.514 16.1951C27.4598 16.2617 27.4134 16.3215 27.3866 16.375C27.3597 16.4277 27.3325 16.4883 27.3325 16.541C27.3997 16.5017 27.48 16.475 27.5674 16.4686L27.8629 16.475C27.8362 16.5214 27.8292 16.5878 27.8362 16.6748C27.8497 16.761 27.8829 16.8811 27.9363 17.0208C27.8829 17.0475 27.8362 17.0734 27.7955 17.1006L27.6685 17.214L27.7955 17.1997L27.9166 17.2069L28.1987 17.2939C28.138 17.3269 28.0841 17.3729 28.0307 17.4202L27.8829 17.5862H28.0307L28.1852 17.6063C28.1515 17.6599 28.1178 17.7197 28.1043 17.7728C28.0774 17.8331 28.0641 17.8928 28.0504 17.9589L28.1515 17.9393L28.2656 17.9522L28.44 17.9991L28.3192 18.1852L28.2723 18.2855L28.2389 18.3918L28.4131 18.3784C28.474 18.3851 28.5341 18.3985 28.6013 18.4253C28.5069 18.4981 28.44 18.585 28.4068 18.6779L28.5069 18.6448L28.6145 18.652L28.5876 18.7051L28.5606 18.8243V18.8912C28.5876 18.8711 28.6215 18.8645 28.6552 18.8645C28.6956 18.8645 28.7353 18.8778 28.7758 18.8979L28.769 18.9247V18.9577L28.7758 18.9845L28.7893 19.0108L29.1115 19.3639C29.1851 19.384 29.252 19.4103 29.3129 19.4433C29.3796 19.4768 29.434 19.5165 29.4807 19.5634L29.615 19.7228L29.722 19.9297L29.8094 20.4287L29.8157 20.422H29.8224L29.8292 20.4287H29.8359L29.8631 20.4354L29.8766 20.4488L29.8833 20.4622L29.8968 20.4957L29.8898 20.5216L29.8561 20.5689L29.6949 20.6751L29.467 20.8684C29.3796 20.9616 29.3064 21.0478 29.2386 21.1478C29.1714 21.2411 29.1115 21.3472 29.0708 21.4472C29.0241 21.5535 28.9977 21.6677 28.9772 21.7739C28.957 21.8931 28.9435 22.0064 28.9435 22.126C28.9435 22.1997 28.9435 22.2662 28.957 22.326L28.9772 22.5121C29.0104 22.6657 29.0571 22.8053 29.1317 22.9384L29.252 23.1312L29.3998 23.3181L29.4135 23.3373L29.4203 23.3708V23.3913L29.4068 23.4109L29.3998 23.4243L29.3731 23.4377L29.3394 23.4444L29.6479 24.9417L29.1916 24.9484L28.8564 25.002C28.7758 25.0216 28.7154 25.0417 28.6552 25.069C28.6013 25.0948 28.5539 25.1283 28.5144 25.1685C28.474 25.202 28.4468 25.2417 28.4333 25.2881C28.4068 25.3283 28.3994 25.3751 28.3994 25.4283C28.3861 25.4943 28.3994 25.5613 28.4468 25.6345C28.5004 25.7077 28.5741 25.7809 28.6884 25.8608C28.9166 26.0072 29.2723 26.1601 29.762 26.3266C29.7829 26.6462 29.8094 26.9586 29.8494 27.2452C29.8833 27.5317 29.9297 27.8043 29.9841 28.0571C30.0645 28.3636 30.1514 28.6564 30.2522 28.9229C30.3668 29.1955 30.4871 29.4482 30.6212 29.6815C30.8498 30.0546 31.1042 30.447 31.3797 30.8393C31.6553 31.2258 31.9573 31.6319 32.2793 32.0514C32.5679 32.404 32.8632 32.7574 33.1785 33.123L34.2388 34.3146L34.1924 34.6275L34.1789 34.8605C34.1789 34.927 34.1924 34.9801 34.2119 35.0269C34.2258 35.0733 34.2458 35.093 34.2793 35.1131C34.3264 35.1532 34.3731 35.18 34.4135 35.1992L34.5745 35.2202C34.622 35.2202 34.6756 35.2068 34.7288 35.18C34.7897 35.1532 34.8496 35.1131 34.9103 35.0671C34.9974 34.993 35.0847 34.9006 35.1858 34.7735C35.2864 34.6413 35.3866 34.4811 35.4874 34.2949L35.5006 34.2815L35.5076 34.2745L35.5543 34.0817C35.5543 34.0214 35.5543 33.9553 35.5478 33.8821L35.4809 33.676L35.3529 33.4158C34.9103 32.8637 34.5012 32.3446 34.1248 31.8515C33.7556 31.3592 33.4333 30.8996 33.138 30.4671C32.8495 30.0341 32.5946 29.6346 32.38 29.262C32.1718 28.8961 31.9973 28.5564 31.8635 28.2502C31.6753 27.8043 31.521 27.3322 31.4199 26.8323C31.3126 26.3333 31.2522 25.8209 31.2252 25.268L31.2187 25.2078L31.1915 25.1618L31.1516 25.1283C31.1383 25.1149 31.1246 25.1082 31.1042 25.1082L31.1586 24.0032H31.1383L31.1246 23.997L31.1042 23.9898L31.091 23.963V23.9568L31.0845 23.9233L31.0977 23.897L31.1246 23.8702L31.1516 23.864C31.2722 23.8309 31.393 23.7908 31.5073 23.7305L31.8293 23.5305L32.0507 23.331L32.0981 23.2712L32.1318 23.2445L32.1987 23.158L32.3263 22.9446L32.4606 22.6054L32.514 22.3729L32.5275 22.126C32.5275 21.9332 32.5005 21.7668 32.4468 21.6007C32.4001 21.4342 32.3263 21.274 32.2257 21.1347L32.2117 21.1013V21.0746L32.0242 20.8483C31.9099 20.742 31.7889 20.6483 31.6623 20.5689C31.5412 20.4957 31.4065 20.4354 31.2722 20.3957H31.2589L31.2522 20.3886L31.239 20.3756L31.2317 20.356V20.3426L31.239 20.3355V20.3158L31.2589 20.3091C31.1915 20.1828 31.1516 20.0623 31.1246 19.9427C31.091 19.8231 31.0777 19.7034 31.0845 19.5771C31.0041 19.3973 30.91 19.2242 30.8161 19.0644C30.7158 18.9046 30.6144 18.7515 30.4939 18.6118C30.5008 18.5182 30.4871 18.432 30.4465 18.3387C30.413 18.2521 30.3668 18.1655 30.2924 18.0723C30.2188 17.9861 30.1312 17.8991 30.0238 17.8196C29.917 17.7263 29.7885 17.6398 29.6479 17.5595ZM29.7153 17.813C29.8359 17.8857 29.95 17.966 30.0443 18.0589C30.1447 18.1584 30.2323 18.2722 30.3059 18.3918L30.2989 18.452L30.2792 18.4918L30.2393 18.5182L30.1849 18.5248C29.9767 18.3056 29.8157 18.066 29.7153 17.813Z" fill="#090B0D"/>
<path d="M33.4942 21.1076L32.353 21.0478C32.5679 21.361 32.6817 21.7203 32.6817 22.126L32.6683 22.3791L32.6151 22.6255L33.7086 22.5461L33.7354 22.592L33.7623 22.6255L33.8162 22.6451L33.8434 22.6589H33.8771C34.427 22.6589 34.9574 22.699 35.4612 22.7853C35.9711 22.8722 36.4472 23.0049 36.8969 23.1779C37.212 23.298 37.5682 23.4645 37.9443 23.6573C38.3197 23.8568 38.7361 24.0901 39.1789 24.363C39.6217 24.636 40.0983 24.9556 40.6017 25.3015C41.1122 25.6546 41.6556 26.0335 42.2264 26.4601L42.2399 26.473C42.3266 26.5199 42.4074 26.5596 42.4811 26.5864L42.7032 26.6325L42.9039 26.6391L43.0916 26.5864H43.1121V26.5797L43.1188 26.573C43.3068 26.4601 43.468 26.3539 43.5886 26.2534C43.7157 26.1535 43.8105 26.0601 43.8774 25.9673L43.985 25.7938L44.0179 25.6278C44.0249 25.5742 44.0179 25.5273 43.9908 25.4747C43.9782 25.4283 43.9513 25.3881 43.9039 25.3417C43.8839 25.3082 43.857 25.2948 43.8166 25.2747L43.6488 25.2479L43.0986 25.3283L41.8638 24.3228C41.5261 24.0502 41.2026 23.8117 40.9024 23.5904L40.7493 23.4774C40.3201 23.165 39.8968 22.8722 39.4942 22.6121C39.0853 22.3461 38.6889 22.1136 38.307 21.9002C38.0714 21.7668 37.8095 21.6605 37.5342 21.5672C37.2659 21.4673 36.9708 21.3941 36.6621 21.3339L35.8229 21.2143L34.8901 21.1674L34.8635 21.0995C34.7809 20.8878 34.7071 20.6987 34.6287 20.5421C34.5476 20.3685 34.4607 20.2292 34.3798 20.1159C34.3062 20.0029 34.2258 19.9297 34.1587 19.8829C34.0776 19.8361 34.0112 19.8231 33.9435 19.8432C33.8367 19.8432 33.7556 19.8896 33.6822 19.9699C33.6145 20.0423 33.5611 20.1623 33.5274 20.3091L33.4872 20.6483C33.4809 20.7779 33.4869 20.9268 33.4937 21.0941L33.4942 21.1076Z" fill="#090B0D"/>
<path d="M28.8159 20.0891L29.0571 20.3024L29.1782 20.4421L29.3594 20.7617L29.3529 20.7684H29.3459V20.7751C29.1582 20.9675 29.0241 21.1674 28.9233 21.3941C28.8292 21.6203 28.7825 21.8667 28.7893 22.126C28.7893 22.1925 28.7893 22.2595 28.7962 22.326L28.8229 22.5193L28.2858 22.4188C28.1248 22.3791 27.97 22.3327 27.8362 22.2858C27.7022 22.2394 27.5811 22.1863 27.4666 22.1332C27.4509 22.1234 27.4355 22.1138 27.4201 22.1042C27.3307 22.0486 27.2473 21.9967 27.1785 21.9399L25.6211 20.742C24.7817 20.1493 23.9165 19.6165 23.0035 19.1376C22.809 19.0175 22.6208 18.8912 22.4463 18.7641L21.9166 18.3458L21.8423 18.2722C21.7953 18.2053 21.7684 18.1392 21.7546 18.0723C21.7354 18.0129 21.7282 17.9522 21.7417 17.8928C21.7417 17.8397 21.7619 17.7858 21.7953 17.7394C21.8268 17.696 21.8698 17.6584 21.9188 17.6155C21.9223 17.6125 21.9258 17.6094 21.9294 17.6063C21.9631 17.5335 22.0105 17.4599 22.0641 17.3934C22.1173 17.3202 22.1782 17.2537 22.2516 17.1872C22.2047 17.2939 22.1712 17.4001 22.151 17.5068C22.1308 17.6197 22.1243 17.7263 22.1308 17.8397L22.2988 17.7263C22.3128 17.7194 22.3272 17.712 22.342 17.7045C22.3843 17.6829 22.4299 17.6596 22.48 17.6398L22.4598 17.7263V17.8063C22.4531 17.8727 22.4598 17.9393 22.4668 18.0062C22.48 18.066 22.5005 18.1325 22.5269 18.199L22.8023 18.2655L22.8824 18.1655L22.97 18.0856L22.997 18.066L23.1577 17.9589L23.0841 18.145C23.0807 18.1599 23.0769 18.1747 23.0732 18.1894C23.0616 18.2349 23.0501 18.2802 23.0501 18.3253V18.5047C23.0885 18.4735 23.1325 18.4483 23.1766 18.4231C23.1792 18.4216 23.1818 18.4201 23.1844 18.4186L23.3392 18.3726C23.3194 18.432 23.3053 18.4981 23.2988 18.5516C23.2988 18.6118 23.3053 18.6649 23.3194 18.718C23.3522 18.6779 23.3996 18.652 23.44 18.6319L23.5204 18.598L23.601 18.585C23.5875 18.6319 23.5808 18.685 23.5808 18.7381C23.5875 18.7913 23.5943 18.8444 23.6073 18.8979L23.7418 18.8042L23.8087 18.7783L23.8761 18.7582L23.8559 18.831V18.9046L23.8691 18.9774L23.8893 19.0577C23.9765 18.9774 24.0775 18.9247 24.1916 18.8979C24.2051 18.9577 24.2253 19.0175 24.2588 19.0778C24.2917 19.1238 24.3257 19.1706 24.3661 19.217L24.4195 19.1505C24.4235 19.1466 24.4275 19.1428 24.4314 19.1389C24.4478 19.1228 24.464 19.1069 24.4799 19.0907L24.5475 19.0443L24.6342 19.0108L24.6477 19.0979L24.6746 19.1778L24.7153 19.2509L24.7618 19.3103L24.8893 19.1907C24.9432 19.1572 24.9969 19.1305 25.0505 19.1108C25.044 19.1706 25.044 19.2242 25.0577 19.2769C25.0705 19.3304 25.0972 19.384 25.1314 19.4303C25.1781 19.3902 25.232 19.3572 25.2991 19.3304C25.3523 19.3036 25.4195 19.284 25.4866 19.2706L25.4534 19.3505L25.4332 19.4433L25.4329 19.4459C25.4263 19.5052 25.4197 19.5643 25.4332 19.6299C25.4804 19.5835 25.5405 19.5433 25.6144 19.5103C25.682 19.4835 25.755 19.4634 25.8493 19.4571C25.8361 19.4835 25.8228 19.5165 25.8158 19.5433C25.8152 19.5466 25.8146 19.5499 25.8139 19.5532C25.808 19.5835 25.8024 19.6129 25.8024 19.6366C25.8024 19.67 25.8093 19.7034 25.8158 19.7299L25.8493 19.8231C25.8895 19.7967 25.9367 19.7763 25.9906 19.7637L26.1513 19.7369C26.1311 19.7896 26.1246 19.8432 26.1379 19.8959C26.1513 19.9561 26.1711 20.0092 26.2048 20.0623L26.2657 20.023L26.326 19.9896L26.4738 19.9498C26.4668 19.9896 26.4738 20.0364 26.4871 20.0891L26.5946 20.1895L26.6948 20.1292C26.7221 20.1185 26.758 20.108 26.7954 20.0971C26.8044 20.0944 26.8135 20.0918 26.8225 20.0891C26.8088 20.1159 26.8088 20.1426 26.8088 20.1694C26.813 20.1755 26.8165 20.1822 26.8201 20.1891C26.8283 20.2048 26.8371 20.2216 26.856 20.2355L26.9566 20.2824L26.9771 20.2957L26.997 20.3024L27.0776 20.3288L27.1111 20.3426L27.1785 20.3685C27.3597 20.4287 27.5342 20.4551 27.7022 20.4622L27.7686 20.4287L27.97 20.3024L28.2858 20.023L28.4874 19.9896C28.5539 19.9962 28.6215 20.0092 28.6884 20.0293C28.7352 20.0489 28.7759 20.0692 28.8159 20.0891Z" fill="#090B0D"/>
</g>
<defs>
<linearGradient id="paint0_linear_107_38" x1="52.3262" y1="43.5165" x2="52.3262" y2="1.48394" gradientUnits="userSpaceOnUse">
<stop stop-color="#FAB600"/>
<stop offset="1" stop-color="#FFCC00"/>
</linearGradient>
<clipPath id="clip0_107_38">
<rect width="225" height="45" fill="white"/>
</clipPath>
</defs>
</svg>
