<svg width="102" height="39" viewBox="0 0 102 39" fill="none" xmlns="http://www.w3.org/2000/svg">
<path d="M47.1865 18.5532C47.1865 18.3153 47.4111 17.8396 47.4111 17.6017V17.3639C47.4111 17.126 47.4111 17.126 47.4111 17.126V16.8881L47.1865 16.6503C47.1865 16.6503 47.1865 16.6503 46.9618 16.6503C46.9618 16.6503 46.5125 16.6503 46.2879 16.6503H42.6936C42.4689 16.6503 42.0196 16.6503 41.795 16.6503H41.3457H41.1211L40.8964 16.8881L40.6718 17.126C40.6718 17.126 40.6718 17.6017 40.4471 17.8396V18.0774C40.4471 18.3153 40.4471 18.3153 40.4471 18.3153C40.4471 18.3153 40.4471 18.5532 40.6718 18.5532C40.6718 18.5532 40.6718 18.791 40.8964 18.791C40.8964 18.791 41.3457 18.791 41.5703 18.791H42.2443H42.4689V19.0289L40.2225 30.9219C40.2225 31.6355 39.9978 32.1112 39.5485 32.5869C39.3239 33.0626 38.8746 33.5383 38.4253 34.0141C37.976 34.4898 37.3021 34.9655 36.8528 34.9655C36.1789 35.2034 35.5049 34.9655 35.0556 34.4898C34.6063 34.0141 34.3817 33.5383 34.3817 33.0626C34.157 32.1112 34.3817 31.1597 34.3817 30.2083L36.6281 18.791C36.6281 18.5532 36.8528 18.3153 37.0774 18.3153H38.2007H38.4253L38.65 18.0774L38.8746 17.8396C38.8746 17.6017 38.8746 17.3639 39.0992 17.126V16.8881C39.0992 16.6503 39.0992 16.6503 39.0992 16.6503C39.0992 16.6503 39.0992 16.4124 38.8746 16.4124C38.8746 16.4124 38.8746 16.1746 38.65 16.1746C38.65 16.1746 38.2007 16.1746 37.976 16.1746H34.3817C34.157 16.1746 33.7077 16.1746 33.4831 16.1746H33.0338C32.8092 16.1746 32.8092 16.1746 32.5845 16.1746L32.3599 16.4124L32.1352 16.6503C32.1352 16.6503 32.1352 17.126 31.9106 17.3639V17.6017C31.9106 17.8396 31.9106 17.8396 31.9106 18.0774C31.9106 18.3153 31.9106 18.3153 32.1352 18.5532C32.1352 18.5532 32.1352 18.5532 32.3599 18.5532C32.3599 18.5532 32.5845 18.5532 32.8092 18.5532H33.0338V18.791L30.7874 30.684C31.012 32.349 31.012 33.3005 31.012 34.2519C31.012 34.9655 31.2366 35.9169 31.4613 36.3927C31.9106 37.1062 32.3599 37.582 32.8092 38.0577C34.157 38.7713 35.9542 38.7713 37.5267 38.5334C37.976 38.5334 38.4253 38.2955 38.8746 38.0577C39.5485 37.8198 40.2225 37.1062 40.8964 36.3927C41.5703 35.6791 42.0196 34.9655 42.2443 34.2519C42.6936 33.5383 42.9182 32.1112 42.9182 32.1112C42.9182 31.8733 43.1429 31.3976 43.1429 31.1597L45.3893 19.7425C45.3893 19.5046 45.614 19.2667 45.8386 19.2667H46.2879H46.5125L46.7372 19.0289C47.1865 18.791 47.1865 18.791 47.1865 18.5532Z" fill="#E2E2E2"/>
<path d="M65.1581 16.8883C64.9335 16.8883 64.9335 16.6505 65.1581 16.8883L64.7089 16.6505C64.7089 16.6505 64.2596 16.6505 64.0349 16.6505H60.6652C60.4406 16.6505 59.9913 16.6505 59.7666 16.6505H59.3174C59.0927 16.6505 59.0927 16.6505 58.8681 16.6505L58.6434 16.8883L58.4188 17.1262C58.4188 17.1262 58.4188 17.6019 58.1941 17.8398V18.0776C58.1941 18.3155 58.1941 18.3155 58.1941 18.5533C58.1941 18.7912 58.1941 18.7912 58.4188 19.0291C58.4188 19.0291 58.4188 19.0291 58.6434 19.0291C58.6434 19.0291 58.8681 19.0291 59.0927 19.0291H59.3174C59.3174 19.0291 59.3174 19.0291 59.3174 19.2669L54.3752 24.7377C54.3752 24.7377 54.3752 24.7377 54.1505 24.7377C54.1505 24.7377 54.1505 24.7377 54.1505 24.4998L55.0491 19.2669C55.0491 19.0291 55.2737 18.7912 55.4984 18.7912H56.6216H56.8463L57.0709 18.5533L57.2956 18.3155C57.2956 18.0776 57.2955 17.8398 57.5202 17.6019V17.364C57.5202 17.1262 57.5202 17.1262 57.5202 16.8883C57.5202 16.6505 57.5202 16.6505 57.2956 16.4126C57.2956 16.4126 57.2955 16.4126 57.0709 16.4126C57.0709 16.4126 56.6216 16.4126 56.397 16.4126H52.1287C51.9041 16.4126 51.4548 16.4126 51.2301 16.4126H50.7808C50.5562 16.4126 50.5562 16.4126 50.3315 16.4126L50.1069 16.6505L49.8822 16.8883C49.8822 16.8883 49.8822 17.364 49.6576 17.6019V17.8398C49.6576 18.0776 49.6576 18.0776 49.6576 18.3155C49.6576 18.5533 49.6576 18.5533 49.8822 18.7912C49.8822 18.7912 49.8822 18.7912 50.1069 18.7912C50.1069 18.7912 50.3315 18.7912 50.5562 18.7912H51.2301H51.4548V19.0291L48.5344 34.49C48.5344 34.7278 48.3097 34.9657 48.0851 34.9657H46.9619C46.7372 34.9657 46.7372 34.9657 46.5126 35.2035L46.2879 35.4414C46.2879 35.4414 46.2879 35.6793 46.0633 35.6793C46.0633 35.6793 46.0633 36.155 45.8386 36.3928V36.6307C45.8386 36.8686 45.8386 36.8686 45.8386 37.1064C45.8386 37.3443 45.8386 37.3443 46.0633 37.5821C46.0633 37.5821 46.0633 37.5821 46.2879 37.5821C46.2879 37.5821 46.5126 37.5821 46.9619 37.5821H53.4766H53.7012C53.7012 37.5821 53.9259 37.5821 53.9259 37.3443L54.1505 37.1064C54.1505 36.8686 54.1505 36.6307 54.3752 36.3928V36.155C54.3752 35.9171 54.3752 35.9171 54.3752 35.6793C54.3752 35.4414 54.1505 35.4414 54.1505 35.2035C54.1505 35.2035 54.1505 35.2035 53.9259 35.2035C53.9259 35.2035 53.7012 35.2035 53.4766 35.2035H52.8026H52.578V34.9657L53.4766 30.4463C53.4766 30.2085 53.7012 29.7328 53.9259 29.7328L55.0491 28.5435C55.2737 28.7813 55.2737 28.7813 55.4984 29.0192C55.723 29.257 55.723 29.4949 55.9477 29.7328C56.1723 29.9706 56.1723 30.4463 56.397 30.9221C56.6216 31.3978 56.6216 32.1114 56.8463 32.1114C56.8463 32.3492 57.0709 32.8249 57.0709 33.0628L57.7448 37.1064C57.7448 37.3443 57.7448 37.3443 57.7448 37.5821C57.7448 37.82 57.7448 37.82 57.9695 38.0579C57.9695 38.2957 58.1941 38.2957 58.1941 38.2957H58.4188H61.3392C61.5638 38.2957 61.5638 38.2957 61.7885 38.2957C62.0131 38.2957 62.0131 38.0579 62.0131 38.0579C62.0131 38.0579 62.0131 38.0579 62.0131 37.82C62.0131 37.82 62.0131 37.3443 62.0131 37.1064V36.8686C62.0131 36.6307 62.0131 36.6307 62.0131 36.6307V36.3928L61.7885 36.155C61.7885 36.155 61.3392 36.155 61.1145 36.155C60.8899 36.155 60.6652 35.9171 60.6652 35.6793L59.542 30.2085C59.542 29.7328 59.3174 29.4949 59.0927 29.0192C58.8681 28.5435 58.8681 28.3056 58.4188 27.8299C58.1941 27.3542 57.9695 27.1163 57.7448 26.8784C57.5202 26.6406 57.5202 26.6406 57.5202 26.6406C57.5202 26.6406 57.2956 26.6406 57.2956 26.4027V26.1649L62.9117 19.9805C63.1363 19.7426 63.361 19.7426 63.5856 19.7426H64.0349H64.2596L64.4842 19.5048L64.7089 19.2669C64.7089 19.0291 64.7089 18.7912 64.9335 18.5533V18.3155C64.9335 18.0776 64.9335 18.0776 64.9335 18.0776C65.1581 17.1262 65.1581 16.8883 65.1581 16.8883Z" fill="#E2E2E2"/>
<path d="M83.3544 17.1259C83.3544 17.1259 83.1297 16.888 83.3544 17.1259C83.3544 16.888 83.3544 16.888 83.1297 16.888C83.1297 16.888 82.6805 16.888 82.4558 16.888H71.4482C71.2235 16.888 70.7742 16.888 70.5496 16.888H70.1003H69.8757L69.651 17.1259L69.4264 17.3637C69.4264 17.3637 69.2017 17.8394 69.2017 18.0773V18.3152C69.2017 18.553 69.2017 18.553 69.2017 18.553V18.7909L69.4264 19.0287C69.4264 19.0287 69.651 19.0287 70.1003 19.0287H70.9989H71.2235V19.2666L68.3031 34.7275C68.3031 34.9654 68.0785 35.2032 67.8538 35.2032H66.7306H66.506L66.2813 35.4411L66.0567 35.679C66.0567 35.679 66.0567 35.9168 65.832 36.1547C65.832 36.1547 65.832 36.3925 65.832 36.6304C65.832 36.8682 65.832 36.8682 65.832 37.1061C65.832 37.344 66.0567 37.344 66.0567 37.5818C66.0567 37.5818 66.0567 37.5818 66.2813 37.5818C66.2813 37.5818 66.7306 37.5818 66.9553 37.5818H79.0861H79.3108C79.3108 37.5818 79.5354 37.5818 79.5354 37.344C79.7601 37.344 79.7601 37.1061 79.7601 37.1061C79.7601 37.1061 79.7601 36.6304 79.9847 36.3925L81.1079 31.1596C81.1079 30.9217 81.1079 30.9217 81.1079 30.6839C81.1079 30.446 81.1079 30.446 81.1079 30.446C81.1079 30.446 81.1079 30.2082 80.8833 30.2082C80.8833 30.2082 80.6586 30.2082 80.434 30.2082C80.2093 30.2082 79.9847 30.2082 79.7601 30.2082H79.3108H79.0861L78.8615 30.446C78.8615 30.446 78.8615 30.446 78.6368 30.6839C78.6368 30.6839 78.6368 30.6839 78.6368 30.9218V31.1596C78.6368 31.1596 78.6368 31.3975 78.6368 31.6353L77.9629 34.7275C77.9629 34.9654 77.7382 35.2032 77.5136 35.2032H72.5714H72.3468V34.9654L73.6946 27.8296C73.6946 27.5917 73.9193 27.3538 74.1439 27.3538H75.4918H75.7164V27.5917L74.5932 29.2567V29.4946V29.7324C74.5932 29.7324 74.5932 29.9703 74.8179 29.9703C74.8179 29.9703 75.0425 29.9703 75.2671 29.9703C75.4918 29.9703 75.7164 29.9703 75.9411 29.9703H76.3904H76.615L76.8397 29.7324L77.0643 29.4946C77.0643 29.2567 77.0643 29.0189 77.289 28.781L78.1875 23.5481C78.1875 23.3102 78.1875 22.8345 77.9629 22.5966C77.9629 22.3588 77.5136 22.3588 77.5136 22.3588C77.289 22.3588 77.0643 22.3588 76.8397 22.3588H76.3904H76.1657L75.9411 22.5966C75.9411 22.8345 75.7164 22.8345 75.7164 23.0724V23.3102C75.7164 23.3102 75.7164 23.7859 75.4918 24.0238L75.2671 24.7374C75.2671 24.9752 75.0425 25.2131 74.8179 25.2131H73.47H73.2453V24.9752L74.1439 19.7423C74.1439 19.5045 74.3686 19.2666 74.5932 19.2666H79.5354H79.7601V19.5045L79.0861 22.8345V23.0724C79.0861 23.3102 79.0861 23.3102 79.0861 23.3102C79.0861 23.5481 79.3108 23.5481 79.5354 23.5481C79.7601 23.5481 80.2093 23.5481 80.434 23.5481H80.8833C80.8833 23.5481 80.8833 23.5481 81.1079 23.5481H81.3326L81.5572 23.3102C81.5572 23.3102 81.5572 23.3102 81.7819 23.0724V22.8345C81.7819 22.8345 81.7819 22.8345 81.7819 22.5966C81.7819 22.5966 81.7819 22.3588 81.7819 21.8831L82.6805 16.888C82.6805 16.888 82.6805 16.888 82.6805 16.6501L83.3544 17.1259Z" fill="#E2E2E2"/>
<path d="M101.775 17.1259C101.775 16.888 101.551 16.888 101.551 16.6501C101.551 16.6501 101.551 16.6501 101.326 16.6501C101.326 16.6501 101.101 16.6501 100.877 16.6501H97.507C97.2824 16.6501 96.8331 16.6501 96.6085 16.6501H96.1592C96.1592 16.6501 96.1592 16.6501 95.9345 16.6501C95.9345 16.6501 95.9345 16.6501 95.7099 16.6501C95.7099 16.6501 95.7099 16.6501 95.4852 16.6501L95.2606 16.888L95.0359 17.1259C95.0359 17.1259 95.0359 17.6016 94.8113 17.8394V18.0773C94.8113 18.3152 94.8113 18.3152 94.8113 18.3152V18.553L95.0359 18.7909C95.0359 18.7909 95.2606 18.7909 95.7099 18.7909H96.1592H96.3838V19.0287L93.2388 24.7374C93.2388 24.7374 93.2388 24.9752 93.0141 24.9752C93.0141 24.9752 93.0141 24.9752 93.0141 24.7374L91.6663 19.5045V19.2666H91.8909H92.5648C92.5648 19.2666 92.5648 19.2666 92.7895 19.2666C92.7895 19.2666 92.7895 19.2666 93.0141 19.2666C93.0141 19.2666 93.0141 19.2666 93.2388 19.0287C93.2388 19.0287 93.4634 19.0287 93.4634 18.7909C93.4634 18.7909 93.4634 18.553 93.6881 18.553C93.6881 18.553 93.6881 18.0773 93.9127 17.8394V17.6016C93.9127 17.3637 93.9127 17.3637 93.9127 17.3637V17.1259C93.9127 16.888 93.6881 16.888 93.6881 16.888C93.6881 16.888 93.2388 16.888 93.0141 16.888H89.4198C89.1952 16.888 88.7459 16.888 88.5212 16.888H88.0719H87.8473C87.6226 16.888 87.6226 17.1259 87.398 17.1259L87.1734 17.3637C87.1734 17.3637 87.1734 17.8394 86.9487 18.0773V18.3152C86.9487 18.553 86.9487 18.553 86.9487 18.553C86.9487 18.553 86.9487 18.7909 87.1734 18.7909C87.398 19.0287 87.6226 19.0287 88.0719 19.0287C88.2966 19.0287 88.5212 19.2666 88.5212 19.5045L90.543 29.0189C90.543 29.2567 90.543 29.7324 90.543 29.9703L89.4198 34.9654C89.4198 35.2032 89.1952 35.4411 88.9705 35.4411H86.7241C86.4994 35.4411 86.4994 35.4411 86.2748 35.6789L86.0501 35.9168C86.0501 35.9168 86.0501 36.1547 85.8255 36.1547C85.8255 36.1547 85.8255 36.6304 85.6008 36.8682V37.1061C85.6008 37.344 85.6008 37.344 85.6008 37.5818C85.6008 37.8197 85.6008 37.8197 85.8255 38.0575C85.8255 38.0575 85.8255 38.0575 86.0501 38.0575C86.0501 38.0575 86.0501 38.0575 86.2748 38.0575H94.8113H95.0359C95.0359 38.0575 95.2606 38.0575 95.2606 37.8197L95.4852 37.5818C95.4852 37.344 95.4852 37.1061 95.7099 36.8682V36.6304C95.7099 36.3925 95.7099 36.3925 95.7099 36.3925V36.1547C95.7099 36.1547 95.7099 36.1547 95.7099 35.9168C95.7099 35.9168 95.2606 35.9168 95.0359 35.9168H93.2388H93.0141V35.6789L93.9127 30.6839C93.9127 30.446 94.1374 29.9703 94.1374 29.7324L99.9782 20.218C100.203 19.9802 100.427 19.7423 100.652 19.7423H101.101H101.326L101.551 19.5045L101.775 19.2666C101.775 19.0287 101.775 18.7909 102 18.553V18.3152C101.775 17.3637 101.775 17.3637 101.775 17.1259Z" fill="#E2E2E2"/>
<path d="M27.6422 28.0675C27.4175 27.8296 26.9682 27.5918 26.7436 27.8296C26.0696 28.0675 25.6203 28.7811 25.1711 29.2568C24.2725 30.6839 22.9246 31.8732 21.3521 32.5868C20.2289 33.3004 19.1056 33.7761 17.9824 34.014C17.0838 34.2519 16.1852 34.4897 15.2867 34.4897C14.3881 34.4897 13.4895 34.2519 12.5909 34.014C12.3663 34.014 12.1416 33.7761 11.917 33.7761C10.7937 33.5383 11.243 32.349 11.243 32.349L17.3085 5.70864C17.7578 2.3786 19.5549 3.5679 21.1274 2.14074C21.3521 1.90288 21.5767 1.66502 21.5767 1.42716C21.8014 1.1893 21.8014 0.95144 21.5767 0.47572C21.3521 -4.60771e-07 20.9028 0 20.4535 0C20.0042 0 19.5549 0 19.3303 0C11.4677 0.71358 11.0184 0 8.77193 0C8.098 0 7.42406 9.0382e-07 6.97477 0.237861C6.75012 0.713581 6.30083 1.1893 6.30083 1.90288C6.52548 2.3786 6.75012 2.61646 7.19941 2.61646C7.87335 2.85432 8.32264 2.85432 8.99658 2.85432C11.243 2.85432 10.5691 5.9465 10.5691 5.9465L5.1776 30.9218C4.72831 33.3004 3.15579 34.2519 3.15579 34.2519C3.15579 34.2519 -0.213893 35.2033 0.0107531 37.1062C0.235399 39.009 3.82973 37.8198 3.82973 37.8198C5.85154 37.1062 11.243 37.5819 11.243 37.5819C12.1416 37.8198 13.0402 37.8197 13.7141 38.0576C14.6127 38.0576 15.5113 38.0576 16.1852 38.0576C18.207 38.0576 20.2289 37.5819 22.2507 36.8683C23.3739 36.3926 24.0478 35.4412 24.9464 34.4897C25.6203 33.5383 26.5189 32.5868 26.9682 31.3975C27.4175 30.6839 27.6422 29.9704 27.8668 29.2568C28.0915 29.0189 28.0915 28.5432 27.6422 28.0675ZM10.7937 13.0823C10.5691 14.0337 10.3444 15.223 10.1198 16.1745C9.89516 17.3638 9.67051 18.3152 9.44587 19.5045C9.22122 20.6938 8.99658 21.8831 8.54729 23.0724C8.32264 24.2617 8.09799 25.2132 7.87335 26.4025C7.6487 27.3539 7.42406 28.3053 7.19941 29.2568C6.97477 29.9704 6.97477 30.6839 6.75012 31.3975C6.52548 31.6354 6.30083 32.1111 6.30083 32.5868C6.07618 33.0625 6.07618 33.3004 5.62689 33.7761C5.40225 34.014 5.40225 34.2519 5.1776 34.2519C4.95296 34.4897 4.50367 34.4897 4.27902 34.7276C4.72831 34.2518 4.95296 33.7761 5.40225 33.3004C5.62689 32.8247 5.85154 32.1111 6.07618 31.6354C6.07618 30.9218 6.30083 30.2082 6.30083 29.7325C6.52548 28.7811 6.75012 28.0675 6.97477 27.116C7.19941 26.1646 7.42406 24.9753 7.6487 24.0239C7.87335 22.8346 8.09799 21.6453 8.54729 20.456C8.77193 19.2667 8.99658 18.0774 9.44587 16.8881C9.67051 15.6988 9.89516 14.5095 10.3445 13.3202C10.5691 12.3687 10.7937 11.1794 11.0184 10.228C11.243 9.27654 11.4677 8.56296 11.6923 7.61152C11.917 6.89794 11.917 6.42222 12.1416 5.70864C12.1416 4.99506 12.1416 4.04362 11.6923 3.33004C11.6923 3.09218 11.4677 2.61646 11.243 2.3786C11.243 2.3786 12.5909 3.33004 12.5909 4.99506C12.5909 6.66008 12.1416 8.08724 12.1416 8.08724C12.1416 8.3251 12.1416 8.56296 11.917 8.80082C11.6923 9.27654 11.6923 9.99012 11.4677 10.4658C11.243 11.4173 11.0184 12.1309 10.7937 13.0823ZM18.207 35.679C18.207 35.679 19.7796 35.4411 21.1274 34.7276C22.2507 34.2518 23.3739 33.3004 24.0478 32.349C24.0478 32.349 22.9246 35.679 18.207 35.679Z" fill="#E2E2E2"/>
</svg>
