<svg width="155" height="42" viewBox="0 0 155 42" fill="none" xmlns="http://www.w3.org/2000/svg">
<path d="M15.1049 40.9216C14.0887 40.9216 13.4113 40.9216 12.7338 40.9216C9.34667 40.9216 5.95951 40.9216 2.57234 40.9216C1.89491 40.9216 1.55619 40.5834 1.21747 39.907C3.24977 39.907 5.28207 39.907 6.97566 39.907C9.00796 39.907 10.7015 39.907 13.0726 39.907C12.7338 39.5688 12.3951 39.2306 12.0564 38.8924C10.3628 37.2015 10.0241 34.8341 10.7015 32.4667C11.0403 31.4521 11.379 30.0993 11.7177 28.7465C12.0564 27.7319 12.0564 27.3937 11.379 26.7173C11.0403 28.0701 10.7015 29.0847 10.3628 30.4375C10.0241 31.7903 9.68539 32.8049 9.68539 34.1577C9.68539 34.8341 9.68539 35.5105 10.0241 36.1869C10.3628 37.2015 11.0403 37.8779 11.7177 38.8924C7.9918 38.8924 4.26592 38.8924 0.540039 38.8924C1.21747 38.2161 1.89491 37.8779 2.57234 37.2015C4.60464 35.5105 5.95951 33.4813 6.63694 31.1139C7.31437 29.0847 7.99181 27.0555 9.00796 25.0264C7.99181 24.6882 6.97566 24.35 5.62079 23.6736C6.29822 22.3208 6.97566 20.6298 7.65309 19.277C8.66924 19.9534 9.34667 20.968 10.3628 21.6444C10.3628 21.6444 10.3628 21.6444 10.7015 21.6444C10.7015 21.3062 10.7015 20.968 10.3628 20.968C9.68539 20.2916 9.00795 19.9534 8.33052 19.277C8.66924 18.2624 9.00796 18.2624 9.68539 18.9388C10.0241 19.277 10.7015 19.6152 11.0403 19.9534C11.7177 18.6006 12.0564 16.9096 12.7338 15.5568C13.0726 14.5423 13.4113 13.5277 13.75 12.5131C14.0887 12.1749 13.75 11.8367 13.4113 11.4985C12.7338 10.8221 12.0564 9.8075 11.379 9.1311C15.4436 9.1311 19.1695 9.1311 23.2341 9.1311C22.5566 10.1457 21.5405 10.8221 20.863 11.8367C20.5243 12.1749 20.5243 12.5131 20.5243 12.5131C21.5405 15.5568 22.8953 18.6006 24.2502 21.6444C24.9276 21.6444 24.5889 21.3062 24.5889 20.6298C23.5728 18.2624 22.5566 15.5568 21.5405 13.1895C21.5405 12.8513 21.2018 12.5131 21.5405 12.1749C22.5566 11.1603 23.2341 10.4839 23.9115 9.4693C24.2502 9.80749 24.5889 9.8075 24.9276 10.1457C23.9115 11.1603 23.2341 11.8367 22.2179 12.5131C23.2341 15.2187 24.2502 17.586 25.2664 20.2916C25.9438 19.9534 26.2825 19.277 26.9599 18.9388C27.6374 20.6298 28.6535 22.3208 29.331 24.35C27.9761 24.35 26.9599 24.35 25.9438 24.35C24.9276 24.35 24.9276 24.6882 25.2664 25.3646C26.2825 28.4083 27.2987 31.4521 28.6535 34.1577C29.331 35.5105 30.3471 36.5251 31.3633 37.5397C31.702 37.8779 32.0407 37.8779 32.3794 38.216C28.3148 38.216 24.5889 38.216 20.5243 38.216C20.863 37.8779 21.5405 37.2015 21.8792 36.8633C22.5566 36.1869 23.5728 35.8487 23.5728 34.8341C23.5728 34.1577 23.2341 33.1431 22.8953 32.4667C22.5566 31.4521 22.2179 30.4375 21.5405 29.0847C20.5243 30.4375 19.5082 31.4521 18.8307 32.8049C18.492 33.4813 17.8146 33.8195 16.7984 33.4813C18.1533 31.7903 19.8469 29.7611 21.2018 28.0701C21.2018 27.7319 20.863 27.3937 20.863 27.0555C19.1695 29.0847 17.8146 30.7757 16.121 32.4667C15.1049 30.7757 13.75 29.4229 12.7338 27.7319C12.3951 29.4229 12.0564 31.1139 11.379 32.4667C10.7015 34.8341 11.7177 36.5251 13.4113 38.216C14.0887 39.5688 14.7661 40.2452 15.1049 40.9216ZM18.1533 27.0555C18.8307 26.3792 19.1695 25.7028 19.8469 25.0264C19.8469 25.0264 19.8469 24.6882 19.8469 24.35C18.8307 22.3208 18.1533 19.9534 17.1372 17.586C16.4597 19.6152 15.7823 21.3062 15.1049 22.9972V23.3354C16.121 24.6882 17.1372 26.041 18.1533 27.0555ZM15.7823 14.5423C14.7661 17.2478 14.0887 19.6152 13.0726 22.3208C12.7338 23.3354 12.7338 24.0118 13.4113 24.6882C14.4274 26.041 15.4436 27.3937 16.4597 28.7465C17.1372 28.4083 17.1372 28.0701 16.7984 27.3937C15.7823 26.3792 15.1049 25.3646 14.0887 24.35C13.75 23.6736 13.75 23.3354 13.75 22.9972C14.4274 20.968 15.4436 18.9388 16.121 16.9096C16.4597 15.895 16.4597 15.5568 15.7823 14.5423Z" fill="#E2E2E2"/>
<path d="M48.9762 8.45483C52.3634 8.45483 55.7506 9.46943 58.1216 12.175C59.8152 14.2042 60.8313 16.5716 61.5088 18.9389C62.8636 23.6737 62.1862 28.0703 60.1539 32.4668C58.4603 35.5106 56.428 37.878 52.7021 38.8926C46.9439 40.2454 42.2019 38.2162 39.1535 33.4814C37.4599 31.114 36.4437 28.0703 36.105 25.0265C35.7663 20.6299 36.7824 16.9098 39.1535 13.1896C40.847 10.8222 43.2181 9.13123 45.9278 8.45483C46.9439 8.79303 47.9601 8.79303 48.9762 8.45483ZM54.3957 14.5424C52.7021 13.5278 51.0085 13.1896 48.9762 13.5278C48.2988 13.5278 47.2827 13.866 46.6052 14.5424C45.5891 15.557 44.9116 16.9098 44.5729 18.2625C43.5568 21.6445 43.2181 25.3647 43.8955 29.0849C44.2342 31.7904 45.2504 34.496 47.2827 36.5252C47.2827 36.5252 47.2827 36.8634 47.2827 37.2016C49.315 37.878 51.3473 37.2016 53.0408 35.5106C54.057 34.1578 55.0731 32.805 55.4119 31.114C55.7506 29.4231 55.7506 27.3939 55.7506 25.7029C56.0893 22.6591 55.7506 19.9535 55.4119 17.248C54.7344 12.5132 49.6537 10.8222 45.9278 12.5132C44.2342 13.5278 43.2181 15.2188 42.5406 16.9098C41.1858 20.9681 40.847 24.6883 41.1858 29.0849C41.5245 31.114 41.8632 32.805 42.8793 34.496C43.5568 35.5106 44.5729 36.5252 45.9278 37.2016C44.2342 35.1724 43.8955 34.496 43.2181 32.805C42.2019 29.4231 41.8632 26.0411 42.2019 22.6591C42.5406 20.6299 42.8793 18.6007 43.5568 16.9098C44.2342 15.2188 45.2504 13.866 46.9439 13.5278C49.315 12.8514 51.3473 13.1896 53.0408 14.5424C54.3957 13.866 54.3957 14.2042 54.3957 14.5424Z" fill="#E2E2E2"/>
<path d="M125.188 38.2162C126.204 37.2016 127.22 36.5253 128.236 35.8489C128.575 35.5107 128.575 35.1725 128.575 35.1725C128.575 32.4669 128.575 29.4231 128.575 26.7175V26.3793C127.898 26.7175 126.881 26.7175 126.204 27.0557C125.527 27.3939 125.527 27.3939 124.849 26.3793C126.204 26.0411 127.22 25.7029 128.575 25.0265C128.575 25.0265 128.575 24.6884 128.575 24.3502C126.881 24.012 125.527 24.6884 123.833 25.7029C123.833 24.6884 124.172 24.012 124.51 23.6738C124.849 22.9974 125.527 22.6592 126.204 22.321C126.881 21.9828 127.559 21.9828 128.236 21.6446C128.236 18.6008 128.236 15.557 128.236 12.8515C128.236 12.5133 127.898 12.1751 127.559 12.1751C126.543 11.1605 125.527 10.4841 124.51 9.46948C132.978 9.46948 141.446 9.46948 149.575 9.46948C148.221 11.8369 146.866 14.2042 145.511 16.5716C145.172 16.2334 144.495 15.557 144.156 15.2188C142.801 14.2042 141.108 13.5279 139.414 13.866C138.059 13.866 137.043 13.866 135.688 13.866C135.688 16.5716 135.688 19.2772 135.688 21.9828C136.704 21.9828 138.059 21.9828 139.075 21.9828L139.414 21.6446C140.43 20.63 141.108 19.2772 142.124 17.9244C142.124 21.3064 142.124 24.6884 142.124 28.0703C141.108 27.0557 140.091 26.0411 139.075 25.0265C138.737 24.6884 138.398 24.6884 138.059 24.6884C136.366 24.6884 134.672 24.6884 132.978 24.6884C132.978 28.7467 132.978 32.8051 132.978 36.8634C133.317 36.8634 133.656 36.8634 133.995 36.8634C133.995 33.1433 133.995 29.4231 133.995 25.7029C135.688 25.7029 137.043 25.7029 138.737 25.7029C139.075 25.7029 139.414 26.3793 139.753 26.7175C139.753 26.7175 139.753 26.7175 139.753 27.0557C138.398 27.0557 136.704 27.0557 135.349 27.0557C135.349 30.4377 135.349 33.8197 135.349 37.2016C137.043 37.2016 138.737 37.2016 140.43 37.2016C141.108 37.2016 142.124 36.8634 142.462 36.5252C143.14 35.8489 143.817 35.1725 144.495 34.4961C145.172 33.8197 145.511 32.8051 146.188 31.7905C147.543 34.4961 148.559 37.2016 150.93 39.2308C142.801 38.2162 133.995 38.2162 125.188 38.2162ZM133.656 11.1605C133.656 14.5424 133.656 17.9244 133.656 21.3064C133.995 21.3064 134.333 21.3064 135.011 21.3064C135.011 18.2626 135.011 15.2188 135.011 12.1751C137.043 12.1751 139.075 12.1751 141.108 12.1751C142.462 12.1751 143.479 12.8515 144.156 13.5279C144.495 13.866 144.833 14.5424 145.511 14.8806C144.833 12.8515 142.801 11.1605 140.769 11.1605C138.737 11.1605 136.366 11.1605 133.656 11.1605Z" fill="#E2E2E2"/>
<path d="M95.042 9.1311C98.7679 9.1311 102.494 9.1311 106.558 9.1311C105.542 10.1457 104.865 10.8221 103.849 11.8367C103.51 12.1749 103.51 12.5131 103.51 12.8513C103.51 19.6152 103.51 26.041 103.51 32.8049C103.51 34.4959 105.203 36.1869 106.897 36.5251C105.542 35.8487 104.526 34.8341 104.526 33.4813C104.526 32.4667 104.187 31.1139 104.187 30.0993C104.187 24.35 104.187 18.9388 104.187 13.1895C104.187 12.8513 104.187 12.5131 104.526 12.5131C105.203 11.4985 105.881 10.8221 106.897 9.80749C107.236 10.1457 107.575 10.4839 107.575 10.8221C107.575 10.8221 107.575 11.1603 107.236 11.1603C105.542 12.1749 105.203 13.8659 105.203 15.895C105.203 21.6444 105.203 27.0555 105.203 32.8049C105.203 34.1577 105.881 35.5105 106.897 36.5251C108.252 37.8779 109.607 37.2015 110.962 37.2015C111.639 37.2015 112.655 36.8633 112.994 36.1869C114.01 35.5105 114.688 34.4959 114.688 33.1431C114.688 26.7173 114.688 19.9534 114.688 13.5277C114.688 12.8513 114.688 12.5131 114.01 12.1749C112.994 11.1603 112.317 10.1457 111.3 9.4693C114.688 9.4693 118.075 9.4693 121.801 9.4693C120.784 10.1457 120.107 11.1603 119.091 11.4985C117.736 12.5131 117.397 13.5277 117.397 15.2186C117.397 21.3062 117.397 27.3937 117.397 33.1431C117.397 35.8487 116.042 37.5397 113.671 38.8924C111.3 39.907 108.591 39.907 105.881 39.5688C104.187 39.2306 102.494 38.8924 100.8 37.8779C99.1066 36.5251 98.0904 34.8341 97.7517 32.8049C97.413 30.4375 97.413 28.0701 97.413 25.7028C97.413 21.9826 97.413 17.9242 97.413 14.2041C97.413 13.1895 97.0743 12.5131 96.3969 11.4985C96.3969 10.4839 95.7194 9.8075 95.042 9.1311Z" fill="#E2E2E2"/>
<path d="M71.6703 38.5545C72.6865 37.5399 73.7026 36.5253 74.7188 35.8489C75.0575 35.5107 75.0575 35.1725 75.0575 34.8343C75.0575 32.1287 75.0575 29.4232 75.0575 26.7176C75.0575 26.3794 75.0575 26.0412 74.7188 25.703C71.6703 21.3064 68.9606 16.9099 65.9121 12.5133C64.896 11.1605 63.8798 10.4841 62.525 9.13133C62.1862 8.79313 62.1863 8.79313 61.8475 8.45493C65.9121 8.45493 69.9767 8.45493 74.38 8.45493C73.0252 9.46952 72.009 10.4841 70.9929 11.4987C73.7026 15.5571 76.0736 18.939 78.7834 22.6592C79.4608 22.321 79.4608 21.6446 79.1221 20.9682C77.0898 17.9245 75.0575 15.2189 73.3639 12.1751C73.3639 11.8369 73.0252 11.8369 73.0252 11.4987C74.0413 10.4841 74.7188 9.80772 75.7349 8.79313C76.0736 9.13132 76.0736 9.13132 76.4123 9.46952C75.7349 10.1459 75.0575 10.4841 74.38 11.1605C76.4123 14.2043 78.1059 17.2481 80.1382 20.2918C81.1544 18.939 82.1705 17.2481 82.848 15.8953C84.2028 13.8661 85.219 12.1751 86.5738 10.1459C86.9126 9.46952 87.2513 8.45493 87.59 7.44034C87.9287 6.42575 87.2513 5.74935 86.5738 5.41116C86.2351 5.07296 85.8964 4.73476 85.219 4.05837C89.2836 2.70558 93.0095 1.35279 96.7353 0C96.0579 0.676394 95.7192 1.35279 95.0418 2.02918C92.6707 4.73476 90.9772 8.11673 88.9449 11.1605C86.2351 15.5571 83.1867 19.6154 80.4769 24.012C80.1382 24.3502 80.1382 25.0266 80.1382 25.3648C80.1382 28.0704 80.1382 30.7759 80.1382 33.4815C80.1382 33.8197 80.1382 34.1579 80.4769 34.4961C81.1544 35.5107 82.1705 36.5253 82.848 37.5399C79.1221 38.5545 75.3962 38.5545 71.6703 38.5545Z" fill="#E2E2E2"/>
<path d="M98.4291 2.36694C98.7678 3.38153 98.4291 4.39613 97.4129 5.07252C95.3806 6.76351 94.0257 8.79269 92.6709 10.8219C89.2837 15.8948 85.8965 20.9678 82.5094 25.7025C82.1707 26.0407 82.1707 26.3789 82.1707 26.7171C82.1707 29.4227 82.1707 32.1283 82.1707 34.8339C82.1707 35.1721 82.5094 35.5103 82.5094 35.8485C83.5255 37.2012 84.5417 38.554 85.8965 39.9068C85.8965 39.9068 85.8965 40.245 86.2353 40.5832C85.8965 40.5832 85.5578 40.5832 85.2191 40.5832C80.8158 40.5832 76.4125 40.5832 72.0092 40.5832C71.6705 40.5832 70.993 40.245 70.6543 40.245V39.9068C75.0576 39.9068 79.4609 39.9068 84.203 39.9068C83.1868 38.554 82.1707 37.5394 81.1545 36.1867C80.8158 35.8485 80.8158 35.5103 80.8158 35.1721C80.8158 32.4665 80.8158 29.4227 80.8158 26.7171C80.8158 26.3789 80.8158 26.0407 81.1545 25.7025C84.8804 19.615 88.945 13.8656 92.6709 7.7781C94.0257 5.74891 96.058 4.05793 97.7516 2.36694C98.0903 2.70514 98.0903 2.70514 98.4291 2.36694Z" fill="#E2E2E2"/>
<path d="M122.817 10.146C123.494 10.8224 123.155 11.1606 122.817 11.4988C121.801 12.1752 120.784 12.5134 120.446 13.528C120.107 14.2044 120.446 15.5571 120.446 16.5717C120.446 21.9829 120.446 27.0559 120.446 32.467C120.446 37.54 117.397 41.2601 112.655 41.9365C108.591 42.2747 104.865 41.2601 101.816 38.8928L101.478 38.5546C102.832 38.8928 104.187 39.5691 105.881 39.9073C108.929 40.5837 111.639 40.5837 114.687 39.5691C117.397 38.5546 119.091 35.849 119.091 32.8052C119.091 26.7177 119.091 20.2919 119.091 14.2044C119.091 13.528 119.091 13.1898 119.768 12.8516C120.784 11.837 121.801 11.1606 122.817 10.146Z" fill="#E2E2E2"/>
<path d="M56.7674 9.80737C57.7835 10.4838 58.7997 11.1602 59.4771 12.1748C61.8481 14.8803 63.5417 17.5859 63.8804 21.3061C64.2191 22.9971 64.2191 25.0262 64.2191 26.7172C63.8804 33.4812 60.1545 39.2305 52.7028 40.9215C48.9769 41.9361 45.5897 40.9215 42.5413 38.2159C43.5574 38.5541 44.5736 39.2305 45.5897 39.5687C49.6543 40.9215 53.3802 40.5833 56.7674 38.2159C59.4771 36.1868 61.1707 33.4812 61.8481 30.0992C63.5417 24.0117 62.5255 17.9241 58.7997 12.8511C58.1222 12.1748 57.4448 11.4984 56.4286 10.822C57.1061 10.4838 56.7674 10.4838 56.7674 9.80737C56.7674 10.1456 56.7674 10.1456 56.7674 9.80737Z" fill="#E2E2E2"/>
<path d="M126.882 39.9069C135.688 39.9069 144.156 39.9069 152.624 39.9069C152.963 39.2305 152.963 38.8923 152.285 38.2159C150.592 36.5249 149.237 34.4957 148.559 32.1283C149.237 32.1283 149.914 31.7901 150.253 32.8047C150.93 34.8339 152.285 36.5249 153.979 37.8777C154.656 38.5541 154.656 38.8923 154.318 39.9069C153.979 40.9214 153.301 41.2597 151.947 41.2597C144.156 41.2597 136.366 41.2597 128.575 41.2597C127.559 40.9215 127.22 40.5833 126.882 39.9069Z" fill="#E2E2E2"/>
<path d="M22.5564 39.907C26.621 39.907 30.6856 39.907 34.7502 39.907C34.0728 39.2306 33.734 38.8924 33.3953 38.5542C31.7017 37.2014 30.6856 35.5104 30.0082 33.4813C29.3307 31.1139 28.3146 28.7465 27.6371 26.3791C27.2984 25.7027 27.6371 25.3645 28.3146 25.3645C29.3307 25.3645 30.0082 25.3645 31.0243 25.3645C30.6856 24.0117 30.0082 22.6589 29.6694 21.3062C29.3307 20.2916 29.3307 20.2916 30.3469 19.9534C31.0243 21.9826 32.0405 24.3499 32.7179 26.3791C31.363 26.3791 30.0082 26.3791 28.3146 26.3791C28.992 27.7319 29.3307 29.0847 29.6694 30.0993C30.3469 31.7903 31.0243 33.4813 31.7017 35.5104C31.7017 35.8486 32.0405 36.1868 32.3792 36.525C33.734 37.8778 34.7502 38.8924 36.1051 40.2452C36.4438 40.2452 36.4438 40.5834 36.7825 40.5834C36.7825 40.5834 36.7825 40.5834 36.7825 40.9216C36.4438 40.9216 36.4438 40.9216 36.1051 40.9216C32.0405 40.9216 28.3146 40.9216 24.25 40.9216C23.2338 40.5834 22.8951 40.2452 22.5564 39.907Z" fill="#E2E2E2"/>
<path d="M143.817 17.9243C144.156 17.9243 144.495 17.9243 145.172 17.9243C145.172 21.6445 145.172 25.3647 145.172 29.0848C144.834 29.0848 144.495 29.0848 143.817 29.0848C143.817 25.3647 143.817 21.6445 143.817 17.9243Z" fill="#E2E2E2"/>
<path d="M150.93 10.146C151.269 10.4842 151.608 10.4842 151.946 10.8224C149.914 12.8516 148.898 15.219 147.882 17.5863C147.543 17.5863 147.204 17.2481 146.865 17.2481C147.882 14.5426 149.236 12.5134 150.93 10.146Z" fill="#E2E2E2"/>
</svg>
