<svg width="286" height="47" viewBox="0 0 286 47" fill="none" xmlns="http://www.w3.org/2000/svg">
<path d="M0.0490063 18.2229C0.343043 17.5129 0.735092 16.9043 1.51919 16.7521C2.49931 16.5493 3.47944 17.1579 3.72447 18.2229V18.2736C4.06751 20.708 5.04763 23.041 6.56683 24.9175C8.57608 27.4026 11.3694 29.0763 14.4568 29.5327C16.27 29.837 18.0833 29.6849 19.8475 29.2284L20.0435 29.1777C20.0435 29.1777 20.0925 29.1777 20.1415 29.2284C19.7495 29.4313 19.4554 29.6342 19.1124 29.7356C13.7707 31.7643 8.87011 31.0542 4.50857 27.2505C2.20528 25.2218 0.63708 22.4324 0.0980127 19.3387C0.0490065 19.2372 0.0490062 19.1865 0 19.0851V18.2229H0.0490063ZM28.7666 46.4214C28.2766 46.2185 27.8355 45.8635 27.5415 45.4071C27.1004 44.5956 27.2964 43.5305 28.0315 42.9219C30.3348 41.0454 31.952 38.4081 32.5891 35.4666C33.5202 30.8514 32.3931 26.794 29.2567 23.3453C29.1097 23.1931 28.9136 23.041 28.7176 22.8888L28.8646 22.7367C29.3057 23.0917 29.7467 23.396 30.1878 23.751C32.9321 25.9826 34.6964 29.2792 35.1864 32.8293C35.8725 38.0024 34.2553 42.4148 30.4818 45.8635C30.1878 46.0664 29.8938 46.2692 29.5997 46.4214H28.7666V46.4214Z" fill="#1E428A"/>
<path d="M16.6132 0.421387C16.6622 0.472103 16.7602 0.47211 16.8093 0.522826C17.4953 0.674976 18.0344 1.28357 18.1814 1.99361C18.3284 2.70364 18.0344 3.41368 17.4953 3.87013C16.0742 5.03662 14.898 6.5074 14.0159 8.18105C11.6636 12.847 12.2517 18.5273 15.4371 22.6353C15.8291 23.0918 16.1722 23.5482 16.5152 24.0047C15.9761 23.5989 15.4371 23.1932 14.947 22.7367C12.5457 20.5559 10.9285 17.6144 10.4384 14.3178C9.65434 8.99252 11.2225 4.52944 15.094 0.979273C15.3881 0.776407 15.6821 0.573537 15.9761 0.421387H16.6132V0.421387Z" fill="#EF7622"/>
<path d="M210.334 41.5019V5.29019C210.481 5.29019 210.628 5.29019 210.775 5.23947C212.834 5.23947 214.892 5.18875 216.999 5.23947C218.812 5.29019 220.577 5.64522 221.998 6.96385C222.88 7.87675 223.664 8.89109 224.301 10.0069L236.259 30.0907C236.602 30.75 237.043 31.3586 237.435 31.9672V5.29019H246.403C246.403 5.44234 246.452 5.59449 246.452 5.74664V40.9947C246.452 41.4005 246.354 41.5019 245.962 41.5019C244.345 41.4512 242.727 41.5019 241.061 41.4512C237.729 41.3498 235.033 39.9297 233.22 36.9881C231.897 34.9595 230.721 32.8294 229.496 30.6993C226.163 24.9683 222.831 19.2373 219.499 13.557C219.45 13.5063 219.4 13.4049 219.253 13.2527V41.4512H210.334V41.5019ZM130.748 35.1116V25.729H120.408V19.998H139.716C140.109 19.998 140.207 20.0995 140.207 20.5052C140.207 27.352 140.207 34.1987 140.207 41.0455V41.5019H139.716C133.64 41.5019 127.514 41.5526 121.437 41.5019C118.105 41.4512 114.821 40.944 111.734 39.4732C107.911 37.6474 105.461 34.6044 104.285 30.4964C103.501 27.5548 103.256 24.4611 103.55 21.4181C103.697 19.3894 104.089 17.4115 104.726 15.535C106.196 11.2241 109.039 8.38391 113.155 6.81169C115.115 6.10166 117.125 5.6452 119.183 5.49305C120.653 5.39162 122.172 5.34091 123.642 5.29019C128.984 5.29019 134.375 5.29019 139.716 5.29019H140.256C140.256 5.49306 140.256 5.64521 140.256 5.79736V10.5647C140.256 10.9705 140.158 11.1226 139.716 11.1226C134.424 11.1226 129.082 11.0719 123.789 11.1226C120.898 11.1226 118.35 12.0862 116.292 14.2671C114.87 15.7886 113.89 17.7665 113.498 19.8966C112.91 22.7367 113.057 25.729 113.939 28.5184C114.919 31.6629 117.027 33.5901 120.016 34.4523C121.829 34.9087 123.74 35.1623 125.603 35.1623C127.171 35.213 128.788 35.1623 130.356 35.1623C130.454 35.1116 130.601 35.1116 130.748 35.1116ZM206.267 5.29019V7.77531C206.267 8.63749 206.267 9.49968 206.267 10.4126C206.267 10.869 206.12 10.9705 205.728 10.9705C200.778 10.9705 195.78 10.9705 190.83 10.9705C188.625 10.9198 186.468 11.6805 184.704 13.1006C182.94 14.5206 182.009 16.4479 181.47 18.6794C181.323 19.2373 181.274 19.7952 181.127 20.4038H206.169V26.1348H181.274C181.127 29.7864 182.499 33.7423 186.615 35.213C188.037 35.7202 189.556 35.9738 191.075 35.9738H206.218V41.5526H205.728C200.239 41.5526 194.799 41.6033 189.311 41.5526C186.027 41.6033 182.744 40.8426 179.755 39.4225C175.638 37.3432 173.139 33.9451 172.11 29.4313C171.57 27.1491 171.374 24.7654 171.57 22.3817C171.668 19.8966 172.159 17.4622 172.992 15.1292C174.56 11.0212 177.402 8.28248 181.421 6.81169C183.675 5.94951 186.027 5.49307 188.429 5.44235C191.369 5.34092 194.358 5.34091 197.348 5.34091H205.728L206.267 5.29019ZM83.7514 6.15238V11.7819H64.1C61.4536 11.7819 59.6894 13.6584 59.6894 16.3971C59.7874 18.5272 61.3556 20.3023 63.3649 20.5559C63.9529 20.6066 64.492 20.6574 65.0801 20.6574C67.7754 20.6574 70.5198 20.6066 73.2151 20.6574C75.6654 20.7081 78.0667 20.9617 80.37 21.9253C83.2614 23.1425 85.0256 25.3233 85.4666 28.5692C85.7607 30.3442 85.6627 32.17 85.1726 33.9451C84.3885 36.5317 82.6733 38.256 80.272 39.2704C78.3608 40.0818 76.3515 40.5383 74.2932 40.589C71.5489 40.6904 68.8046 40.6905 66.0602 40.6905H51.6034V35.0609H72.039C73.9502 35.0609 75.6654 33.7423 76.1555 31.815C76.7435 29.5328 75.4204 27.2505 73.2641 26.6419C73.2151 26.6419 73.1661 26.5912 73.1171 26.5912C72.48 26.4391 71.7939 26.3376 71.1078 26.3376C68.3145 26.2869 65.5211 26.3376 62.7278 26.2869C59.8364 26.1855 56.9941 25.8305 54.3967 24.3597C51.8484 22.9903 50.5252 20.7588 50.1332 17.8679C49.8392 15.89 50.0352 13.8613 50.8193 12.0355C51.8974 9.44897 53.8577 7.97818 56.357 7.116C58.0232 6.55811 59.7384 6.2031 61.4536 6.2031C68.8045 6.15238 76.1555 6.15238 83.5554 6.10166C83.6044 6.15238 83.6534 6.15238 83.7514 6.15238ZM263.212 10.9705H250.568C250.568 10.869 250.519 10.7169 250.519 10.6154V5.74664C250.519 5.23947 250.813 5.34091 251.058 5.34091H286V10.9705H272.964V41.5526C272.719 41.5526 272.572 41.6033 272.376 41.6033H263.8C263.212 41.6033 263.212 41.6033 263.212 40.9947V11.7819V10.9705Z" fill="white"/>
<path d="M153.634 5.29014V5.94947C153.634 12.8469 153.634 19.6937 153.634 26.5404C153.634 27.9605 153.781 29.3806 154.075 30.8006C154.565 33.3872 156.183 34.9087 158.633 35.4158C159.956 35.6694 161.23 35.8216 162.553 35.8723C165.886 35.923 169.169 35.8723 172.502 35.923C172.698 35.923 172.894 36.0244 173.041 36.1766C174.462 38.256 176.373 39.7775 178.431 41.1468L178.774 41.3497C178.774 41.3497 178.823 41.4004 178.872 41.4511H178.431C172.502 41.4511 166.572 41.5019 160.642 41.4511C157.604 41.4004 154.565 41.0961 151.723 39.9296C147.802 38.3067 145.499 35.2637 144.715 31.0542C144.421 29.5327 144.323 27.9605 144.323 26.439C144.274 19.5923 144.323 12.7455 144.323 5.94947C144.323 5.138 144.372 5.29014 144.96 5.29014H153.095H153.634Z" fill="#EF7622"/>
<path d="M89.7793 41.5018V5.29012H99.2865C99.2865 5.44227 99.3355 5.59441 99.3355 5.74656V40.9947C99.3355 41.299 99.3845 41.5018 98.9435 41.5018H90.0734C90.0244 41.5525 89.9264 41.5525 89.7793 41.5018ZM19.2104 18.3243C19.2104 16.9042 19.4555 15.4842 19.9455 14.1655C21.7588 9.1953 25.1402 6.00015 30.1388 4.78295C32.6871 4.17435 35.3335 4.3265 37.7348 5.29012C38.7149 5.59442 39.254 6.71019 38.9599 7.72453C38.6659 8.73886 37.5878 9.29674 36.6076 8.99244C36.5586 8.99244 36.5096 8.94172 36.4606 8.94172C34.5984 8.18097 32.5891 7.87667 30.6289 8.07953C26.5614 8.43455 22.8859 10.7675 20.7786 14.4191C20.0926 15.5856 19.5535 16.955 19.2104 18.3243Z" fill="white"/>
<path d="M26.3163 28.5184C26.2183 31.5614 25.1402 34.503 23.278 36.836C21.0727 39.7268 17.8873 41.654 14.3588 42.1105C12.1046 42.4655 9.85027 42.2119 7.694 41.4512C6.9099 41.1976 6.37083 40.3861 6.41984 39.5239C6.41984 38.7125 6.9589 37.9517 7.743 37.7996C8.13505 37.6981 8.57611 37.7489 8.96816 37.8503C10.3893 38.4082 11.9085 38.7632 13.4767 38.7632C16.5151 38.8646 19.5045 37.7996 21.8568 35.7709C24.1111 33.9958 25.6793 31.4093 26.3163 28.5184ZM25.4832 17.6143C26.5614 17.0057 27.6885 16.6 28.8647 16.3464C36.3626 14.6728 43.7625 19.643 45.3797 27.4026C45.3797 27.4534 45.3797 27.4534 45.3797 27.5041C45.6738 28.8734 45.0857 29.8878 43.8115 30.0906C42.8804 30.2428 41.9493 29.5327 41.8023 28.5691C41.5083 26.4897 40.7732 24.5118 39.597 22.7367C37.6368 19.7951 34.5494 17.8172 31.119 17.2593C29.3547 16.955 27.4925 17.0564 25.7773 17.5129C25.6793 17.5636 25.5813 17.5636 25.4832 17.6143Z" fill="#EF7622"/>
</svg>
